<?xml version="1.0" encoding="UTF-8" standalone="no"?><!-- Generator: Gravit.io --><svg xmlns="http://www.w3.org/2000/svg" xmlns:xlink="http://www.w3.org/1999/xlink" style="isolation:isolate" viewBox="2389 790 5004 3205" width="5004pt" height="3205pt"><defs><clipPath id="_clipPath_aAIlYXMw7rry4e8jH0fOiwlggJDUNEUx"><rect x="2389" y="790" width="5004" height="3205"/></clipPath></defs><g clip-path="url(#_clipPath_aAIlYXMw7rry4e8jH0fOiwlggJDUNEUx)"><g><path d=" M 6988.856 978.76 L 6599.703 3728.742 C 6437.063 3705.916 6271.689 3687.817 6105.852 3673.661 L 6091.714 3569.744 L 6038.169 3668.126 C 6026.961 3667.247 6015.754 3666.369 6004.547 3665.537 L 5982.791 3629.244 L 5922.531 3659.647 C 5869.108 3655.989 5815.708 3652.735 5762.431 3649.837 L 5738.185 3597.629 L 5689.523 3646.108 C 5596.031 3641.547 5503.004 3638.103 5410.88 3635.609 L 5377.038 3569.744 L 5295.096 3632.973 C 5131.309 3629.861 4970.989 3629.647 4816.48 3631.571 L 4786.594 3595.777 L 4773.8 3632.141 C 4763.105 3632.284 4752.411 3632.45 4741.79 3632.64 L 4710.146 3579.055 L 4667.759 3634.042 C 4543.306 3636.678 4423.397 3640.574 4309.371 3645.324 L 4272.55 3603.211 L 4164.946 3651.927 C 4031.094 3658.578 3907.082 3666.226 3795.4 3674.064 L 3760.435 3569.744 L 3691.409 3681.641 C 3681.838 3682.378 3672.389 3683.09 3663.037 3683.827 L 3630.514 3653.4 L 3616.694 3687.485 C 3598.772 3688.91 3581.339 3690.359 3564.394 3691.76 L 3502.473 3627.367 L 3482.256 3698.838 C 3293.955 3715.56 3184.593 3728.742 3184.593 3728.742 L 2858.508 978.76 C 2981.568 951.065 3106.215 927.004 3231.741 906.244 L 3283.675 952.538 L 3291.806 896.553 C 3325.916 891.185 3360.075 886.055 3394.258 881.162 L 3478.593 986.836 L 3488.873 868.24 C 3608.954 852.54 3729.353 839.595 3849.458 829.073 L 3888.476 899.404 L 3923.49 822.921 C 4138.454 805.819 4352.027 796.342 4560.545 792.708 L 4610.794 871.115 L 4662.387 828.978 L 4697.376 899.404 L 4717.227 791.021 C 4830.202 790.57 4941.347 791.734 5050.074 794.276 L 5083.721 850.307 L 5137.657 796.603 C 5370.543 803.563 5591.344 816.436 5793.953 832.256 L 5806.039 964.533 L 5865.152 837.98 C 5897.651 840.688 5929.66 843.443 5961.109 846.269 L 5978.006 899.404 L 6010.919 850.83 C 6600.093 905.793 6988.856 978.76 6988.856 978.76 Z " fill="rgb(237,169,102)"/><path d=" M 3344.815 3858.288 L 3344.79 3858.288 C 3345.303 3860.283 3345.669 3862.302 3345.864 3864.345 C 3345.987 3865.509 3346.06 3866.696 3346.084 3867.884 L 3346.084 3867.955 C 3346.109 3870.045 3345.987 3872.112 3345.694 3874.202 C 3339.663 3919.759 3261.212 3963.559 3156.025 3981.563 C 3141.961 3983.962 3127.409 3985.933 3112.49 3987.358 C 3061.044 3992.275 3012.65 3990.304 2972.216 3982.869 C 2906.975 3970.969 2862.39 3944.913 2858.947 3910.899 C 2858.606 3907.36 2858.728 3903.821 2859.24 3900.282 C 2880.654 3623.733 2876.991 3339.963 2858.532 3061.466 L 3207.3 3028.118 C 3278.206 3579.981 3344.815 3858.288 3344.815 3858.288 Z " fill="rgb(224,154,90)"/><path d=" M 3379.267 3792.898 L 3379.267 3792.898 C 3379.828 3795.035 3380.243 3797.22 3380.487 3799.429 C 3380.609 3800.712 3380.658 3801.995 3380.683 3803.277 L 3380.683 3803.372 C 3380.707 3805.605 3380.512 3807.885 3380.146 3810.142 C 3372.259 3859.618 3276.961 3908.073 3149.701 3928.856 C 3132.683 3931.635 3115.078 3933.916 3097.059 3935.649 C 3034.821 3941.611 2976.416 3940.02 2927.656 3932.467 C 2849.01 3920.329 2795.489 3892.586 2791.777 3855.746 C 2791.386 3851.898 2791.582 3848.051 2792.265 3844.226 C 2821.59 3543.972 2820.735 3236.189 2801.91 2934.296 L 3223.586 2893.964 C 3302.305 3491.764 3379.267 3792.898 3379.267 3792.898 Z " fill="rgb(237,169,102)"/><path d=" M 2969.97 925.389 C 3009.867 916.814 3050.838 906.957 3092.371 899.404 C 3111.855 910.069 3121.89 916.577 3121.89 916.577 C 3123.99 1451.576 3149.31 1914.391 3183.03 2300.225 C 3187.987 2357.279 3193.187 2412.646 3198.534 2466.397 C 3283.602 3320.51 3408.469 3750.12 3408.469 3750.12 L 3408.469 3750.12 C 3409.055 3752.067 3409.47 3754.063 3409.69 3756.058 C 3409.812 3757.222 3409.836 3758.385 3409.836 3759.573 L 3409.836 3759.644 C 3409.812 3761.687 3409.543 3763.753 3409.104 3765.82 C 3399.337 3811.092 3292.514 3857.101 3150.751 3878.478 C 3131.804 3881.352 3112.197 3883.774 3092.127 3885.698 C 3022.905 3892.325 2958.079 3892.016 2904.069 3886.031 C 2816.975 3876.482 2758.107 3852.231 2754.713 3818.717 C 2754.346 3815.225 2754.639 3811.71 2755.494 3808.194 C 2816.511 3375.425 2794.512 2926.956 2741.552 2510.102 C 2734.447 2454.189 2726.731 2398.988 2718.527 2344.666 C 2603.183 1581.24 2391.881 991.587 2391.881 991.587 C 2405.701 979.615 2417.689 965.126 2431.436 954.675 C 2441.886 946.766 2452.288 939.284 2462.665 932.206 C 2628.307 966.552 2801.788 960.376 2969.97 925.389 Z " fill="rgb(249,192,125)"/><path d=" M 3336.318 3772.067 C 3255.938 3819.976 3034.845 3922.871 2812.775 3769.597 C 2812.775 3769.597 2851.281 3478.701 2846.08 3403.216 C 2840.904 3327.707 2930.977 3278.967 2909.319 3269.038 C 2887.686 3259.11 2832.138 3216.926 2832.138 3216.926 C 2832.138 3216.926 2837.192 3097.712 2815.144 2976.314 C 2793.12 2854.939 2829.281 2697.104 2829.281 2697.104 L 2805.939 2632.83 C 2805.939 2632.83 2811.359 2216.712 2747.925 2058.925 C 2684.515 1901.114 2607.211 1571.264 2574.249 1486.563 C 2541.262 1401.838 2608.31 1338.419 2597.835 1332.315 C 2587.337 1326.187 2515.38 1266.568 2509.838 1259.989 C 2504.295 1253.386 2447.429 1004.722 2447.429 1004.722 C 2447.429 1004.722 2636.145 860.782 2757.179 865.842 L 2793.12 978.76 L 2843.638 867.076 C 2843.638 867.076 3059.457 917.835 3091.272 943.132 C 3091.272 943.132 3075.059 1191.677 3086.218 1342.6 L 3017.363 1353.93 L 3112.441 1449.319 C 3112.441 1449.319 3107.192 1817.933 3119.327 1945.032 C 3131.462 2072.107 3114.419 2217.448 3114.419 2217.448 L 3152.216 2245.619 C 3152.216 2245.619 3174.02 2357.041 3183.689 2557.155 C 3193.382 2757.269 3216.31 2968.808 3241.141 3125.55 C 3265.973 3282.316 3215.089 3360.794 3215.089 3360.794 C 3215.089 3360.794 3270.173 3372.148 3277.669 3373.81 C 3285.165 3375.473 3287.02 3418.037 3314.416 3519.911 C 3333.07 3589.316 3351.187 3671.57 3360.856 3716.938 C 3365.447 3738.528 3355.631 3760.547 3336.318 3772.067 Z " fill="rgb(249,202,140)"/><path d=" M 2744.458 829.5 C 2688.959 834.82 2636.707 843.561 2590.242 854.702 C 2575.446 858.241 2561.235 862.017 2547.708 866.031 C 2448.699 895.271 2385.264 935.768 2389.171 974.509 C 2392.955 1012.014 2458.832 1039.162 2556.278 1049.851 C 2616.685 1056.526 2689.252 1056.858 2766.677 1049.471 C 2789.14 1047.31 2811.066 1044.602 2832.26 1041.395 C 2990.871 1017.477 3110.39 966.005 3121.304 915.365 C 3121.817 913.037 3122.11 910.733 3122.135 908.429 L 3122.135 908.358 C 3122.135 907.028 3122.086 905.722 3121.964 904.439 C 3116.519 850.474 2982.422 817.98 2810.578 825.011 L 2810.383 825.011 C 2788.945 825.866 2766.896 827.362 2744.458 829.5 Z " fill="rgb(244,177,110)"/><path d=" M 2806.94 790.926 L 2832.26 1041.395 C 2990.871 1017.477 3110.39 966.005 3121.304 915.365 C 3121.793 912.99 3122.062 910.71 3122.135 908.429 L 3122.135 908.358 C 3124.21 849.048 2993.971 797.031 2834.018 791.401 C 2824.91 791.093 2815.876 790.926 2806.94 790.926 Z " fill="rgb(199,125,40)"/><path d=" M 2567.534 845.366 C 2559.013 851.828 2552.347 858.739 2547.708 866.031 C 2448.699 895.271 2385.264 935.768 2389.171 974.509 C 2392.955 1012.014 2458.832 1039.162 2556.278 1049.851 L 2538.503 873.656 L 2593.343 855.96 L 2590.242 854.702 L 2567.534 845.366 Z " fill="rgb(199,125,40)"/><path d=" M 2566.582 835.937 C 2557.914 840.877 2551.053 846.127 2546.268 851.566 C 2541.457 856.958 2538.723 862.54 2538.21 868.288 C 2538.064 870.14 2538.161 871.922 2538.503 873.656 C 2545.926 912.372 2675.285 919.118 2817.317 893.584 C 2817.927 893.489 2812.849 845.438 2809.553 814.797 C 2807.99 800.498 2806.842 790 2806.842 790 C 2701.167 792.66 2610.581 810.76 2566.582 835.937 Z " fill="rgb(199,125,40)"/><path d=" M 6437.186 3863.229 L 6437.186 3863.229 C 6436.697 3865.224 6436.331 3867.243 6436.111 3869.285 C 6435.989 3870.449 6435.94 3871.637 6435.891 3872.825 L 6435.916 3872.896 C 6435.867 3874.986 6436.014 3877.052 6436.282 3879.143 C 6442.337 3924.7 6520.788 3968.499 6625.951 3986.504 C 6640.015 3988.903 6654.592 3990.874 6669.485 3992.299 C 6720.956 3997.216 6769.326 3995.244 6809.784 3987.81 C 6875.025 3975.91 6919.586 3949.854 6923.028 3915.84 C 6923.394 3912.301 6923.273 3908.762 6922.735 3905.223 C 6901.322 3628.674 6904.985 3344.904 6923.468 3066.407 L 6574.7 3033.058 C 6503.794 3584.922 6437.186 3863.229 6437.186 3863.229 Z " fill="rgb(224,154,90)"/><path d=" M 6402.709 3797.838 L 6402.733 3797.838 C 6402.147 3799.976 6401.733 3802.161 6401.513 3804.37 C 6401.391 3805.653 6401.318 3806.935 6401.293 3808.218 L 6401.318 3808.313 C 6401.293 3810.546 6401.488 3812.826 6401.855 3815.083 C 6409.717 3864.559 6505.015 3913.014 6632.299 3933.797 C 6649.293 3936.576 6666.922 3938.856 6684.941 3940.59 C 6747.155 3946.552 6805.56 3944.961 6854.32 3937.407 C 6932.966 3925.27 6986.487 3897.527 6990.223 3860.687 C 6990.614 3856.839 6990.419 3852.991 6989.735 3849.167 C 6960.386 3548.913 6961.24 3241.129 6980.066 2939.236 L 6558.39 2898.905 C 6479.67 3496.705 6402.709 3797.838 6402.709 3797.838 Z " fill="rgb(237,169,102)"/><path d=" M 6812.03 925.389 C 6772.133 916.814 6731.138 906.957 6689.629 899.404 C 6670.145 910.069 6660.085 916.577 6660.085 916.577 C 6657.985 1451.576 6632.69 1914.391 6598.97 2300.225 C 6593.989 2357.279 6588.789 2412.646 6583.441 2466.397 C 6498.374 3320.51 6373.507 3750.12 6373.507 3750.12 L 6373.531 3750.12 C 6372.921 3752.067 6372.506 3754.063 6372.31 3756.058 C 6372.188 3757.222 6372.139 3758.385 6372.139 3759.573 L 6372.164 3759.644 C 6372.188 3761.687 6372.433 3763.753 6372.896 3765.82 C 6382.639 3811.092 6489.486 3857.101 6631.249 3878.478 C 6650.197 3881.352 6669.803 3883.774 6689.849 3885.698 C 6759.071 3892.325 6823.921 3892.016 6877.906 3886.031 C 6965.025 3876.482 7023.894 3852.231 7027.287 3818.717 C 7027.63 3815.225 7027.336 3811.71 7026.506 3808.194 C 6965.489 3375.425 6987.464 2926.956 7040.448 2510.102 C 7047.553 2454.189 7055.269 2398.988 7063.473 2344.666 C 7178.793 1581.24 7390.119 991.587 7390.119 991.587 C 7376.275 979.615 7364.311 965.126 7350.54 954.675 C 7340.114 946.766 7329.688 939.284 7319.311 932.206 C 7153.668 966.552 6980.188 960.376 6812.03 925.389 Z " fill="rgb(249,192,125)"/><path d=" M 6445.683 3772.067 C 6526.062 3819.976 6747.155 3922.871 6969.2 3769.597 C 6969.2 3769.597 6930.719 3478.701 6935.896 3403.216 C 6941.096 3327.707 6850.999 3278.967 6872.656 3269.038 C 6894.314 3259.11 6949.838 3216.926 6949.838 3216.926 C 6949.838 3216.926 6944.808 3097.712 6966.832 2976.314 C 6988.88 2854.939 6952.719 2697.104 6952.719 2697.104 L 6976.037 2632.83 C 6976.037 2632.83 6970.616 2216.712 7034.051 2058.925 C 7097.485 1901.114 7174.764 1571.264 7207.751 1486.563 C 7240.714 1401.838 7173.665 1338.419 7184.164 1332.315 C 7194.664 1326.187 7266.595 1266.568 7272.138 1259.989 C 7277.705 1253.386 7334.571 1004.722 7334.571 1004.722 C 7334.571 1004.722 7145.83 860.782 7024.797 865.842 L 6988.856 978.76 L 6938.338 867.076 C 6938.338 867.076 6722.543 917.835 6690.704 943.132 C 6690.704 943.132 6706.916 1191.677 6695.758 1342.6 L 6764.613 1353.93 L 6669.534 1449.319 C 6669.534 1449.319 6674.809 1817.933 6662.673 1945.032 C 6650.538 2072.107 6667.581 2217.448 6667.581 2217.448 L 6629.784 2245.619 C 6629.784 2245.619 6607.98 2357.041 6598.287 2557.155 C 6588.593 2757.269 6565.666 2968.808 6540.834 3125.55 C 6516.003 3282.316 6566.911 3360.794 6566.911 3360.794 C 6566.911 3360.794 6511.803 3372.148 6504.331 3373.81 C 6496.835 3375.473 6494.955 3418.037 6467.584 3519.911 C 6448.93 3589.316 6430.788 3671.57 6421.144 3716.938 C 6416.554 3738.528 6426.369 3760.547 6445.683 3772.067 Z " fill="rgb(249,202,140)"/><path d=" M 7037.542 834.441 C 7093.041 839.761 7145.293 848.502 7191.734 859.642 C 7206.531 863.181 7220.741 866.958 7234.268 870.972 C 7333.302 900.211 7396.736 940.709 7392.829 979.449 C 7389.021 1016.954 7323.144 1044.103 7225.697 1054.792 C 7165.29 1061.466 7092.749 1061.799 7015.299 1054.412 C 6992.86 1052.25 6970.934 1049.543 6949.716 1046.336 C 6791.129 1022.417 6671.586 970.946 6660.671 920.306 C 6660.183 917.978 6659.89 915.674 6659.865 913.37 L 6659.841 913.299 C 6659.841 911.969 6659.89 910.662 6660.012 909.38 C 6665.481 855.414 6799.578 822.921 6971.398 829.952 L 6971.593 829.952 C 6993.031 830.807 7015.079 832.303 7037.542 834.441 Z " fill="rgb(244,177,110)"/><path d=" M 6975.036 795.867 L 6949.716 1046.336 C 6791.129 1022.417 6671.586 970.946 6660.671 920.306 C 6660.208 917.93 6659.939 915.65 6659.865 913.37 L 6659.841 913.299 C 6657.79 853.989 6788.029 801.971 6947.982 796.342 C 6957.089 796.033 6966.124 795.867 6975.036 795.867 Z " fill="rgb(199,125,40)"/><path d=" M 7214.466 845.366 C 7222.963 851.828 7229.653 858.739 7234.268 866.031 C 7333.302 895.271 7396.736 935.768 7392.829 974.509 C 7389.021 1012.014 7323.144 1039.162 7225.697 1049.851 L 7243.497 873.656 L 7188.657 855.96 L 7191.734 854.702 L 7214.466 845.366 Z " fill="rgb(199,125,40)"/><path d=" M 7215.418 840.877 C 7224.086 845.818 7230.923 851.067 7235.733 856.507 C 7240.518 861.899 7243.253 867.48 7243.766 873.229 C 7243.936 875.081 7243.839 876.862 7243.497 878.597 C 7236.074 917.313 7106.69 924.058 6964.659 898.525 C 6964.073 898.43 6969.127 850.378 6972.423 819.738 C 6973.986 805.439 6975.134 794.941 6975.134 794.941 C 7080.809 797.601 7171.419 815.7 7215.418 840.877 Z " fill="rgb(199,125,40)"/><path d=" M 3283.163 1153.222 C 3283.163 1153.222 3239.652 3060.492 3478.081 3514.021 L 3584.66 3490.743 L 3641.965 3574.399 L 3776.696 3437.776 L 3897.071 3599.506 L 4160.771 3579.981 L 4352.808 3451.718 L 4438.804 3579.981 L 4665.244 3571.62 L 4736.906 3493.546 L 4776.315 3560.457 L 4877.351 3493.546 L 4940.419 3599.506 L 5258.569 3577.202 L 5450.606 3460.079 L 5476.414 3599.506 L 5636.929 3599.506 L 5780.231 3514.021 L 5837.561 3613.448 L 5960.816 3599.506 L 6018.146 3613.448 L 6129.926 3479.603 L 6230.254 3599.506 L 6342.034 3613.448 C 6342.034 3613.448 6663.918 1541.716 6551.699 1023.082 L 6095.523 913.702 L 5980.887 1000.779 L 5914.962 883.679 L 5803.158 1087.214 L 5711.449 865.699 L 5204.119 850.307 C 5204.119 850.307 5032.129 1006.361 5032.129 998 C 5032.129 989.615 4966.204 829.001 4966.204 829.001 L 4802.831 850.307 L 4734.025 1031.443 L 4653.792 878.098 L 4605.056 1034.246 L 4524.799 850.307 L 4014.588 865.699 L 3856.954 1028.664 L 3759.483 865.699 L 3564.589 913.702 L 3538.781 1129.042 L 3361.955 952.561 L 3298.008 1034.246 L 3283.163 1153.222 Z " fill="rgb(249,202,140)"/></g></g></svg>