<?xml version="1.0" encoding="UTF-8" standalone="no"?><!-- Generator: Gravit.io --><svg xmlns="http://www.w3.org/2000/svg" xmlns:xlink="http://www.w3.org/1999/xlink" style="isolation:isolate" viewBox="-351 2059 6046 1099.42" width="6046pt" height="1099.42pt"><defs><clipPath id="_clipPath_MH3HElemrIjPyjrb44AjxXq1DGr9805g"><rect x="-351" y="2059" width="6046" height="1099.42"/></clipPath></defs><g clip-path="url(#_clipPath_MH3HElemrIjPyjrb44AjxXq1DGr9805g)"><g><path d=" M 5206.699 2123.751 L 4736.512 3067.085 C 4540.005 3059.255 4340.195 3053.046 4139.824 3048.19 L 4122.743 3012.543 L 4058.047 3046.292 C 4044.506 3045.99 4030.965 3045.689 4017.424 3045.403 L 3991.139 3032.954 L 3918.33 3043.383 C 3853.782 3042.128 3789.263 3041.012 3724.892 3040.018 L 3695.597 3022.109 L 3636.802 3038.739 C 3523.842 3037.174 3411.443 3035.993 3300.136 3035.137 L 3259.248 3012.543 L 3160.242 3034.233 C 2962.349 3033.165 2768.646 3033.092 2581.963 3033.752 L 2545.854 3021.473 L 2530.395 3033.948 C 2517.473 3033.996 2504.552 3034.053 2491.719 3034.119 L 2453.486 3015.737 L 2402.272 3034.599 C 2251.905 3035.504 2107.026 3036.84 1969.256 3038.47 L 1924.768 3024.023 L 1794.757 3040.735 C 1633.033 3043.016 1483.197 3045.64 1348.259 3048.328 L 1306.014 3012.543 L 1222.614 3050.928 C 1211.05 3051.18 1199.633 3051.425 1188.334 3051.677 L 1149.039 3041.24 L 1132.341 3052.932 C 1110.688 3053.421 1089.623 3053.918 1069.15 3054.399 L 994.336 3032.31 L 969.908 3056.827 C 742.396 3062.563 610.262 3067.085 610.262 3067.085 L 216.275 2123.751 C 364.96 2114.251 515.563 2105.997 667.228 2098.876 L 729.977 2114.756 L 739.8 2095.551 C 781.014 2093.71 822.285 2091.95 863.587 2090.271 L 965.483 2126.521 L 977.903 2085.839 C 1122.989 2080.453 1268.459 2076.013 1413.574 2072.403 L 1460.717 2096.529 L 1503.022 2070.293 C 1762.749 2064.426 2020.794 2061.175 2272.733 2059.929 L 2333.446 2086.825 L 2395.782 2072.371 L 2438.057 2096.529 L 2462.042 2059.35 C 2598.542 2059.196 2732.831 2059.595 2864.199 2060.467 L 2904.852 2079.687 L 2970.02 2061.265 C 3251.4 2063.652 3518.179 2068.068 3762.978 2073.495 L 3777.581 2118.87 L 3849.003 2075.459 C 3888.269 2076.388 3926.944 2077.333 3964.942 2078.302 L 3985.356 2096.529 L 4025.124 2079.867 C 4736.984 2098.721 5206.699 2123.751 5206.699 2123.751 Z " fill="rgb(237,169,102)"/><path d=" M 803.847 3111.523 L 803.818 3111.523 C 804.437 3112.208 804.88 3112.9 805.116 3113.601 C 805.263 3114 805.352 3114.408 805.381 3114.815 L 805.381 3114.839 C 805.411 3115.556 805.263 3116.265 804.909 3116.982 C 797.623 3132.61 702.836 3147.634 575.745 3153.811 C 558.752 3154.633 541.17 3155.31 523.145 3155.799 C 460.986 3157.485 402.515 3156.809 353.662 3154.259 C 274.835 3150.177 220.966 3141.238 216.806 3129.571 C 216.393 3128.357 216.54 3127.143 217.16 3125.929 C 243.033 3031.063 238.608 2933.721 216.305 2838.187 L 637.697 2826.748 C 723.368 3016.055 803.847 3111.523 803.847 3111.523 Z " fill="rgb(224,154,90)"/><path d=" M 845.473 3089.092 L 845.473 3089.092 C 846.152 3089.825 846.653 3090.575 846.948 3091.333 C 847.096 3091.773 847.155 3092.213 847.184 3092.653 L 847.184 3092.685 C 847.214 3093.451 846.978 3094.233 846.535 3095.008 C 837.006 3111.979 721.864 3128.601 568.104 3135.73 C 547.542 3136.684 526.272 3137.466 504.5 3138.061 C 429.302 3140.106 358.736 3139.56 299.822 3136.969 C 204.799 3132.805 140.133 3123.289 135.649 3110.651 C 135.177 3109.331 135.413 3108.011 136.239 3106.7 C 171.67 3003.703 170.637 2898.123 147.892 2794.564 L 657.375 2780.729 C 752.486 2985.794 845.473 3089.092 845.473 3089.092 Z " fill="rgb(237,169,102)"/><path d=" M 350.947 2105.443 C 399.152 2102.501 448.655 2099.12 498.836 2096.529 C 522.378 2100.187 534.503 2102.42 534.503 2102.42 C 537.04 2285.942 567.632 2444.703 608.373 2577.057 C 614.362 2596.628 620.646 2615.621 627.106 2634.059 C 729.888 2927.048 880.756 3074.418 880.756 3074.418 L 880.756 3074.418 C 881.464 3075.086 881.966 3075.771 882.231 3076.455 C 882.379 3076.854 882.409 3077.253 882.409 3077.661 L 882.409 3077.685 C 882.379 3078.386 882.055 3079.095 881.523 3079.804 C 869.723 3095.333 740.656 3111.116 569.373 3118.449 C 546.48 3119.435 522.791 3120.266 498.541 3120.926 C 414.905 3123.199 336.58 3123.093 271.324 3121.04 C 166.094 3117.765 94.967 3109.446 90.866 3097.949 C 90.424 3096.751 90.778 3095.545 91.81 3094.339 C 165.533 2945.886 138.953 2792.046 74.965 2649.051 C 66.381 2629.871 57.058 2610.936 47.146 2592.301 C -92.217 2330.421 -347.519 2128.151 -347.519 2128.151 C -330.821 2124.044 -316.337 2119.074 -299.728 2115.489 C -287.101 2112.776 -274.534 2110.209 -261.996 2107.781 C -61.861 2119.563 147.744 2117.445 350.947 2105.443 Z " fill="rgb(249,192,125)"/><path d=" M 793.581 3081.947 C 696.463 3098.381 429.331 3133.677 161.02 3081.099 C 161.02 3081.099 207.543 2981.312 201.259 2955.419 C 195.005 2929.517 303.834 2912.797 277.667 2909.391 C 251.529 2905.986 184.414 2891.515 184.414 2891.515 C 184.414 2891.515 190.521 2850.621 163.881 2808.977 C 137.271 2767.342 180.962 2713.199 180.962 2713.199 L 152.759 2691.151 C 152.759 2691.151 159.309 2548.409 82.665 2494.283 C 6.051 2440.148 -87.35 2326.999 -127.176 2297.944 C -167.032 2268.881 -86.022 2247.126 -98.678 2245.032 C -111.363 2242.93 -198.303 2222.479 -204.999 2220.222 C -211.696 2217.956 -280.404 2132.657 -280.404 2132.657 C -280.404 2132.657 -52.391 2083.281 93.846 2085.016 L 137.271 2123.751 L 198.309 2085.44 C 198.309 2085.44 459.069 2102.852 497.508 2111.529 C 497.508 2111.529 477.92 2196.788 491.402 2248.56 L 408.209 2252.446 L 523.086 2285.168 C 523.086 2285.168 516.743 2411.615 531.405 2455.214 C 546.067 2498.805 525.476 2548.661 525.476 2548.661 L 571.143 2558.325 C 571.143 2558.325 597.487 2596.546 609.17 2665.192 C 620.882 2733.838 648.583 2806.403 678.586 2860.17 C 708.588 2913.946 647.108 2940.867 647.108 2940.867 C 647.108 2940.867 713.662 2944.761 722.719 2945.332 C 731.776 2945.902 734.018 2960.503 767.118 2995.449 C 789.657 3019.257 811.547 3047.473 823.229 3063.035 C 828.776 3070.442 816.916 3077.995 793.581 3081.947 Z " fill="rgb(249,202,140)"/><path d=" M 78.476 2072.55 C 11.42 2074.375 -51.712 2077.373 -107.853 2081.195 C -125.73 2082.409 -142.9 2083.704 -159.244 2085.081 C -278.87 2095.111 -355.514 2109.003 -350.794 2122.292 C -346.221 2135.158 -266.627 2144.471 -148.889 2148.137 C -75.903 2150.427 11.774 2150.541 105.322 2148.007 C 132.463 2147.266 158.955 2146.337 184.561 2145.237 C 376.2 2137.032 520.608 2119.376 533.795 2102.004 C 534.414 2101.206 534.768 2100.415 534.798 2099.625 L 534.798 2099.601 C 534.798 2099.144 534.739 2098.696 534.591 2098.256 C 528.013 2079.744 365.993 2068.598 158.365 2071.01 L 158.129 2071.01 C 132.227 2071.303 105.587 2071.817 78.476 2072.55 Z " fill="rgb(244,177,110)"/><path d=" M 153.969 2059.318 L 184.561 2145.237 C 376.2 2137.032 520.608 2119.376 533.795 2102.004 C 534.385 2101.19 534.709 2100.407 534.798 2099.625 L 534.798 2099.601 C 537.306 2079.255 379.947 2061.412 186.685 2059.481 C 175.682 2059.375 164.766 2059.318 153.969 2059.318 Z " fill="rgb(199,125,40)"/><path d=" M -135.289 2077.992 C -145.585 2080.209 -153.638 2082.58 -159.244 2085.081 C -278.87 2095.111 -355.514 2109.003 -350.794 2122.292 C -346.221 2135.158 -266.627 2144.471 -148.889 2148.137 L -170.365 2087.697 L -104.106 2081.627 L -107.853 2081.195 L -135.289 2077.992 Z " fill="rgb(199,125,40)"/><path d=" M -136.439 2074.758 C -146.912 2076.453 -155.202 2078.253 -160.984 2080.119 C -166.796 2081.969 -170.1 2083.883 -170.719 2085.855 C -170.896 2086.491 -170.778 2087.102 -170.365 2087.697 C -161.397 2100.978 -5.101 2103.292 166.507 2094.533 C 167.244 2094.5 161.108 2078.017 157.126 2067.506 C 155.238 2062.601 153.851 2059 153.851 2059 C 26.171 2059.912 -83.279 2066.121 -136.439 2074.758 Z " fill="rgb(199,125,40)"/><path d=" M 4540.153 3113.218 L 4540.153 3113.218 C 4539.563 3113.902 4539.12 3114.595 4538.855 3115.296 C 4538.708 3115.695 4538.648 3116.102 4538.589 3116.51 L 4538.619 3116.534 C 4538.56 3117.251 4538.737 3117.96 4539.061 3118.677 C 4546.377 3134.305 4641.165 3149.329 4768.226 3155.505 C 4785.218 3156.328 4802.83 3157.005 4820.826 3157.493 C 4883.014 3159.18 4941.456 3158.504 4990.338 3155.953 C 5069.166 3151.871 5123.005 3142.933 5127.165 3131.266 C 5127.607 3130.051 5127.46 3128.837 5126.81 3127.623 C 5100.938 3032.758 5105.364 2935.416 5127.695 2839.882 L 4706.303 2828.442 C 4620.632 3017.75 4540.153 3113.218 4540.153 3113.218 Z " fill="rgb(224,154,90)"/><path d=" M 4498.497 3090.787 L 4498.527 3090.787 C 4497.819 3091.52 4497.317 3092.27 4497.052 3093.028 C 4496.905 3093.468 4496.816 3093.908 4496.787 3094.348 L 4496.816 3094.38 C 4496.787 3095.146 4497.022 3095.928 4497.465 3096.702 C 4506.964 3113.674 4622.107 3130.296 4775.896 3137.425 C 4796.428 3138.379 4817.729 3139.161 4839.5 3139.756 C 4914.669 3141.801 4985.235 3141.255 5044.149 3138.664 C 5139.172 3134.5 5203.838 3124.984 5208.351 3112.346 C 5208.823 3111.026 5208.588 3109.706 5207.762 3108.394 C 5172.301 3005.398 5173.333 2899.818 5196.079 2796.258 L 4686.596 2782.423 C 4591.485 2987.488 4498.497 3090.787 4498.497 3090.787 Z " fill="rgb(237,169,102)"/><path d=" M 4993.053 2105.443 C 4944.848 2102.501 4895.316 2099.12 4845.164 2096.529 C 4821.622 2100.187 4809.468 2102.42 4809.468 2102.42 C 4806.931 2285.942 4776.368 2444.703 4735.627 2577.057 C 4729.609 2596.628 4723.325 2615.621 4716.864 2634.059 C 4614.083 2927.048 4463.214 3074.418 4463.214 3074.418 L 4463.244 3074.418 C 4462.506 3075.086 4462.005 3075.771 4461.769 3076.455 C 4461.621 3076.854 4461.562 3077.253 4461.562 3077.661 L 4461.591 3077.685 C 4461.621 3078.386 4461.916 3079.095 4462.477 3079.804 C 4474.247 3095.333 4603.344 3111.116 4774.627 3118.449 C 4797.52 3119.435 4821.209 3120.266 4845.43 3120.926 C 4929.065 3123.199 5007.42 3123.093 5072.647 3121.04 C 5177.906 3117.765 5249.033 3109.446 5253.134 3097.949 C 5253.547 3096.751 5253.193 3095.545 5252.19 3094.339 C 5178.467 2945.886 5205.017 2792.046 5269.035 2649.051 C 5277.62 2629.871 5286.942 2610.936 5296.855 2592.301 C 5436.188 2330.421 5691.519 2128.151 5691.519 2128.151 C 5674.792 2124.044 5660.337 2119.074 5643.698 2115.489 C 5631.101 2112.776 5618.504 2110.209 5605.966 2107.781 C 5405.831 2119.563 5196.226 2117.445 4993.053 2105.443 Z " fill="rgb(249,192,125)"/><path d=" M 4550.419 3081.947 C 4647.537 3098.381 4914.669 3133.677 5182.951 3081.099 C 5182.951 3081.099 5136.457 2981.312 5142.712 2955.419 C 5148.995 2929.517 5040.137 2912.797 5066.304 2909.391 C 5092.471 2905.986 5159.557 2891.515 5159.557 2891.515 C 5159.557 2891.515 5153.479 2850.621 5180.089 2808.977 C 5206.729 2767.342 5163.038 2713.199 5163.038 2713.199 L 5191.211 2691.151 C 5191.211 2691.151 5184.662 2548.409 5261.306 2494.283 C 5337.949 2440.148 5431.32 2326.999 5471.176 2297.944 C 5511.003 2268.881 5429.992 2247.126 5442.678 2245.032 C 5455.364 2242.93 5542.273 2222.479 5548.97 2220.222 C 5555.697 2217.956 5624.405 2132.657 5624.405 2132.657 C 5624.405 2132.657 5396.361 2083.281 5250.125 2085.016 L 5206.699 2123.751 L 5145.662 2085.44 C 5145.662 2085.44 4884.931 2102.852 4846.463 2111.529 C 4846.463 2111.529 4866.051 2196.788 4852.569 2248.56 L 4935.761 2252.446 L 4820.885 2285.168 C 4820.885 2285.168 4827.257 2411.615 4812.595 2455.214 C 4797.933 2498.805 4818.524 2548.661 4818.524 2548.661 L 4772.857 2558.325 C 4772.857 2558.325 4746.513 2596.546 4734.801 2665.192 C 4723.089 2733.838 4695.387 2806.403 4665.385 2860.17 C 4635.382 2913.946 4696.892 2940.867 4696.892 2940.867 C 4696.892 2940.867 4630.308 2944.761 4621.281 2945.332 C 4612.224 2945.902 4609.952 2960.503 4576.882 2995.449 C 4554.343 3019.257 4532.423 3047.473 4520.771 3063.035 C 4515.225 3070.442 4527.084 3077.995 4550.419 3081.947 Z " fill="rgb(249,202,140)"/><path d=" M 5265.524 2074.245 C 5332.58 2076.07 5395.713 2079.068 5451.824 2082.89 C 5469.701 2084.104 5486.87 2085.399 5503.214 2086.776 C 5622.87 2096.806 5699.514 2110.698 5694.794 2123.987 C 5690.192 2136.853 5610.598 2146.166 5492.859 2149.832 C 5419.874 2152.122 5332.226 2152.236 5238.649 2149.702 C 5211.538 2148.96 5185.045 2148.032 5159.409 2146.932 C 4967.8 2138.727 4823.363 2121.07 4810.176 2103.699 C 4809.586 2102.901 4809.232 2102.11 4809.202 2101.32 L 4809.173 2101.296 C 4809.173 2100.839 4809.232 2100.391 4809.38 2099.951 C 4815.988 2081.439 4978.007 2070.293 5185.606 2072.705 L 5185.842 2072.705 C 5211.744 2072.998 5238.383 2073.511 5265.524 2074.245 Z " fill="rgb(244,177,110)"/><path d=" M 5190.002 2061.013 L 5159.409 2146.932 C 4967.8 2138.727 4823.363 2121.07 4810.176 2103.699 C 4809.616 2102.884 4809.291 2102.102 4809.202 2101.32 L 4809.173 2101.296 C 4806.694 2080.95 4964.053 2063.107 5157.315 2061.175 C 5168.318 2061.07 5179.234 2061.013 5190.002 2061.013 Z " fill="rgb(199,125,40)"/><path d=" M 5479.289 2077.992 C 5489.555 2080.209 5497.639 2082.58 5503.214 2085.081 C 5622.87 2095.111 5699.514 2109.003 5694.794 2122.292 C 5690.192 2135.158 5610.598 2144.471 5492.859 2148.137 L 5514.366 2087.697 L 5448.106 2081.627 L 5451.824 2081.195 L 5479.289 2077.992 Z " fill="rgb(199,125,40)"/><path d=" M 5480.439 2076.453 C 5490.912 2078.147 5499.173 2079.948 5504.984 2081.814 C 5510.767 2083.664 5514.07 2085.578 5514.69 2087.55 C 5514.896 2088.186 5514.778 2088.797 5514.366 2089.392 C 5505.397 2102.672 5349.071 2104.986 5177.464 2096.228 C 5176.756 2096.195 5182.862 2079.712 5186.845 2069.201 C 5188.733 2064.296 5190.12 2060.695 5190.12 2060.695 C 5317.8 2061.607 5427.278 2067.816 5480.439 2076.453 Z " fill="rgb(199,125,40)"/><path d=" M 729.357 2183.597 C 729.357 2183.597 676.786 2837.853 964.864 2993.428 L 1093.636 2985.443 L 1162.875 3014.14 L 1325.661 2967.274 L 1471.101 3022.752 L 1789.713 3016.055 L 2021.739 2972.056 L 2125.641 3016.055 L 2399.234 3013.187 L 2485.819 2986.405 L 2533.434 3009.357 L 2655.509 2986.405 L 2731.71 3022.752 L 3116.109 3015.102 L 3348.134 2974.925 L 3379.317 3022.752 L 3573.257 3022.752 L 3746.398 2993.428 L 3815.666 3027.535 L 3964.588 3022.752 L 4033.856 3027.535 L 4168.912 2981.622 L 4290.132 3022.752 L 4425.188 3027.535 C 4425.188 3027.535 4814.099 2316.863 4678.513 2138.955 L 4127.345 2101.434 L 3988.837 2131.304 L 3909.185 2091.135 L 3774.1 2160.954 L 3663.294 2084.967 L 3050.321 2079.687 C 3050.321 2079.687 2842.516 2133.219 2842.516 2130.351 C 2842.516 2127.475 2762.863 2072.379 2762.863 2072.379 L 2565.472 2079.687 L 2482.338 2141.823 L 2385.397 2089.22 L 2326.513 2142.784 L 2229.544 2079.687 L 1613.09 2084.967 L 1422.631 2140.87 L 1304.864 2084.967 L 1069.386 2101.434 L 1038.203 2175.302 L 824.557 2114.764 L 747.294 2142.784 L 729.357 2183.597 Z " fill="rgb(249,202,140)"/></g></g></svg>