<?xml version="1.0" encoding="UTF-8" standalone="no"?><!-- Generator: Gravit.io --><svg xmlns="http://www.w3.org/2000/svg" xmlns:xlink="http://www.w3.org/1999/xlink" style="isolation:isolate" viewBox="-1080 1641.4 2000 199.6" width="2000pt" height="199.6pt"><defs><clipPath id="_clipPath_8EoU2y2Uex7pCb6jjWYHonQIztRp72WB"><rect x="-1080" y="1641.4" width="2000" height="199.6"/></clipPath></defs><g clip-path="url(#_clipPath_8EoU2y2Uex7pCb6jjWYHonQIztRp72WB)"><g><path d=" M 758.471 1653.156 L 602.935 1824.418 C 537.931 1822.997 471.834 1821.869 405.552 1820.988 L 399.902 1814.516 L 378.501 1820.643 C 374.021 1820.588 369.542 1820.534 365.063 1820.482 L 356.367 1818.222 L 332.283 1820.115 C 310.93 1819.887 289.588 1819.685 268.294 1819.504 L 258.603 1816.253 L 239.154 1819.272 C 201.787 1818.988 164.606 1818.773 127.786 1818.618 L 114.26 1814.516 L 81.509 1818.454 C 16.047 1818.26 -48.03 1818.247 -109.784 1818.367 L -121.729 1816.137 L -126.842 1818.402 C -131.117 1818.411 -135.391 1818.421 -139.636 1818.433 L -152.284 1815.096 L -169.225 1818.52 C -218.966 1818.685 -266.892 1818.927 -312.466 1819.223 L -327.182 1816.6 L -370.189 1819.634 C -423.687 1820.048 -473.253 1820.525 -517.89 1821.013 L -531.864 1814.516 L -559.453 1821.485 C -563.278 1821.531 -567.055 1821.575 -570.792 1821.621 L -583.791 1819.726 L -589.315 1821.849 C -596.478 1821.937 -603.446 1822.028 -610.218 1822.115 L -634.967 1818.105 L -643.047 1822.556 C -718.308 1823.597 -762.017 1824.418 -762.017 1824.418 L -892.347 1653.156 C -843.162 1651.431 -793.343 1649.932 -743.173 1648.639 L -722.416 1651.522 L -719.166 1648.036 C -705.533 1647.702 -691.88 1647.382 -678.218 1647.077 L -644.511 1653.659 L -640.402 1646.273 C -592.408 1645.295 -544.287 1644.489 -496.284 1643.833 L -480.689 1648.213 L -466.695 1643.45 C -380.778 1642.385 -295.417 1641.795 -212.076 1641.569 L -191.993 1646.452 L -171.372 1643.827 L -157.388 1648.213 L -149.454 1641.464 C -104.3 1641.436 -59.877 1641.508 -16.421 1641.666 L -2.973 1645.156 L 18.584 1641.811 C 111.664 1642.245 199.914 1643.046 280.892 1644.032 L 285.723 1652.269 L 309.349 1644.388 C 322.338 1644.557 335.132 1644.728 347.702 1644.904 L 354.455 1648.213 L 367.61 1645.188 C 603.091 1648.611 758.471 1653.156 758.471 1653.156 Z " fill="rgb(237,169,102)"/><path d=" M -697.98 1832.486 L -697.989 1832.486 C -697.785 1832.61 -697.638 1832.736 -697.56 1832.863 C -697.511 1832.936 -697.482 1833.01 -697.472 1833.084 L -697.472 1833.088 C -697.462 1833.218 -697.511 1833.347 -697.628 1833.477 C -700.039 1836.314 -731.394 1839.042 -773.435 1840.163 C -779.056 1840.313 -784.873 1840.435 -790.835 1840.524 C -811.397 1840.83 -830.739 1840.708 -846.9 1840.245 C -872.976 1839.503 -890.795 1837.881 -892.171 1835.762 C -892.308 1835.542 -892.259 1835.322 -892.054 1835.101 C -883.496 1817.878 -884.959 1800.206 -892.337 1782.862 L -752.942 1780.785 C -724.602 1815.154 -697.98 1832.486 -697.98 1832.486 Z " fill="rgb(224,154,90)"/><path d=" M -684.21 1828.414 L -684.21 1828.414 C -683.986 1828.547 -683.82 1828.683 -683.722 1828.82 C -683.673 1828.9 -683.654 1828.98 -683.644 1829.06 L -683.644 1829.066 C -683.634 1829.205 -683.712 1829.347 -683.859 1829.487 C -687.011 1832.569 -725.1 1835.586 -775.963 1836.881 C -782.765 1837.054 -789.801 1837.196 -797.003 1837.304 C -821.878 1837.675 -845.221 1837.576 -864.71 1837.106 C -896.143 1836.35 -917.535 1834.622 -919.018 1832.328 C -919.174 1832.088 -919.096 1831.848 -918.823 1831.61 C -907.102 1812.911 -907.444 1793.743 -914.968 1774.942 L -746.432 1772.43 C -714.97 1809.66 -684.21 1828.414 -684.21 1828.414 Z " fill="rgb(237,169,102)"/><path d=" M -847.798 1649.832 C -831.852 1649.298 -815.476 1648.684 -798.877 1648.213 C -791.089 1648.878 -787.078 1649.283 -787.078 1649.283 C -786.239 1682.601 -776.119 1711.424 -762.642 1735.453 C -760.661 1739.006 -758.582 1742.455 -756.445 1745.802 C -722.445 1798.994 -672.538 1825.749 -672.538 1825.749 L -672.538 1825.749 C -672.304 1825.871 -672.138 1825.995 -672.05 1826.119 C -672.002 1826.192 -671.992 1826.264 -671.992 1826.338 L -671.992 1826.343 C -672.002 1826.47 -672.109 1826.599 -672.285 1826.727 C -676.188 1829.547 -718.883 1832.412 -775.543 1833.743 C -783.116 1833.922 -790.952 1834.073 -798.974 1834.193 C -826.641 1834.606 -852.55 1834.586 -874.137 1834.214 C -908.947 1833.619 -932.475 1832.109 -933.832 1830.021 C -933.978 1829.804 -933.861 1829.585 -933.52 1829.366 C -909.132 1802.414 -917.925 1774.485 -939.092 1748.524 C -941.932 1745.042 -945.016 1741.604 -948.294 1738.221 C -994.395 1690.677 -1078.849 1653.954 -1078.849 1653.954 C -1073.325 1653.209 -1068.533 1652.306 -1063.039 1651.656 C -1058.862 1651.163 -1054.705 1650.697 -1050.558 1650.256 C -984.354 1652.395 -915.017 1652.011 -847.798 1649.832 Z " fill="rgb(249,192,125)"/><path d=" M -701.376 1827.116 C -733.502 1830.1 -821.869 1836.508 -910.625 1826.962 C -910.625 1826.962 -895.236 1808.846 -897.314 1804.145 C -899.383 1799.443 -863.383 1796.407 -872.039 1795.789 C -880.685 1795.17 -902.886 1792.543 -902.886 1792.543 C -902.886 1792.543 -900.866 1785.119 -909.679 1777.559 C -918.481 1770 -904.028 1760.17 -904.028 1760.17 L -913.358 1756.167 C -913.358 1756.167 -911.191 1730.252 -936.545 1720.426 C -961.889 1710.598 -992.785 1690.055 -1005.96 1684.78 C -1019.144 1679.504 -992.346 1675.554 -996.533 1675.174 C -1000.729 1674.792 -1029.488 1671.08 -1031.703 1670.67 C -1033.919 1670.259 -1056.647 1654.772 -1056.647 1654.772 C -1056.647 1654.772 -981.221 1645.808 -932.846 1646.123 L -918.481 1653.156 L -898.29 1646.2 C -898.29 1646.2 -812.032 1649.361 -799.316 1650.937 C -799.316 1650.937 -805.796 1666.416 -801.336 1675.815 L -828.856 1676.52 L -790.855 1682.461 C -790.855 1682.461 -792.953 1705.417 -788.103 1713.333 C -783.253 1721.247 -790.064 1730.298 -790.064 1730.298 L -774.958 1732.053 C -774.958 1732.053 -766.243 1738.992 -762.378 1751.454 C -758.504 1763.917 -749.341 1777.091 -739.416 1786.853 C -729.491 1796.616 -749.829 1801.503 -749.829 1801.503 C -749.829 1801.503 -727.813 1802.21 -724.817 1802.314 C -721.821 1802.417 -721.079 1805.068 -710.13 1811.413 C -702.674 1815.735 -695.433 1820.858 -691.568 1823.683 C -689.734 1825.028 -693.657 1826.399 -701.376 1827.116 Z " fill="rgb(249,202,140)"/><path d=" M -937.931 1643.86 C -960.112 1644.191 -980.996 1644.736 -999.568 1645.429 C -1005.481 1645.65 -1011.161 1645.885 -1016.568 1646.135 C -1056.14 1647.956 -1081.493 1650.478 -1079.932 1652.891 C -1078.419 1655.226 -1052.09 1656.917 -1013.142 1657.583 C -988.999 1657.999 -959.995 1658.019 -929.05 1657.559 C -920.072 1657.425 -911.308 1657.256 -902.838 1657.056 C -839.444 1655.567 -791.675 1652.361 -787.312 1649.207 C -787.107 1649.062 -786.99 1648.919 -786.981 1648.775 L -786.981 1648.771 C -786.981 1648.688 -787 1648.607 -787.049 1648.527 C -789.225 1645.166 -842.821 1643.143 -911.504 1643.58 L -911.582 1643.58 C -920.15 1643.634 -928.962 1643.727 -937.931 1643.86 Z " fill="rgb(244,177,110)"/><path d=" M -912.958 1641.458 L -902.838 1657.056 C -839.444 1655.567 -791.675 1652.361 -787.312 1649.207 C -787.117 1649.06 -787.01 1648.918 -786.981 1648.775 L -786.981 1648.771 C -786.151 1645.077 -838.205 1641.838 -902.135 1641.487 C -905.775 1641.468 -909.386 1641.458 -912.958 1641.458 Z " fill="rgb(199,125,40)"/><path d=" M -1008.643 1644.848 C -1012.049 1645.25 -1014.713 1645.681 -1016.568 1646.135 C -1056.14 1647.956 -1081.493 1650.478 -1079.932 1652.891 C -1078.419 1655.226 -1052.09 1656.917 -1013.142 1657.583 L -1020.247 1646.61 L -998.328 1645.508 L -999.568 1645.429 L -1008.643 1644.848 Z " fill="rgb(199,125,40)"/><path d=" M -1009.024 1644.261 C -1012.488 1644.569 -1015.231 1644.895 -1017.143 1645.234 C -1019.066 1645.57 -1020.159 1645.918 -1020.364 1646.276 C -1020.422 1646.391 -1020.383 1646.502 -1020.247 1646.61 C -1017.28 1649.021 -965.578 1649.441 -908.81 1647.851 C -908.566 1647.845 -910.596 1644.853 -911.913 1642.944 C -912.538 1642.054 -912.997 1641.4 -912.997 1641.4 C -955.233 1641.566 -991.438 1642.693 -1009.024 1644.261 Z " fill="rgb(199,125,40)"/><path d=" M 537.98 1832.794 L 537.98 1832.794 C 537.785 1832.918 537.638 1833.044 537.551 1833.171 C 537.502 1833.243 537.482 1833.317 537.463 1833.391 L 537.472 1833.396 C 537.453 1833.526 537.511 1833.655 537.619 1833.785 C 540.039 1836.622 571.394 1839.35 613.426 1840.471 C 619.047 1840.62 624.873 1840.743 630.826 1840.832 C 651.397 1841.138 670.73 1841.015 686.9 1840.552 C 712.976 1839.811 730.786 1838.188 732.162 1836.07 C 732.308 1835.85 732.259 1835.629 732.044 1835.409 C 723.486 1818.186 724.95 1800.514 732.337 1783.169 L 592.942 1781.092 C 564.602 1815.461 537.98 1832.794 537.98 1832.794 Z " fill="rgb(224,154,90)"/><path d=" M 524.2 1828.721 L 524.21 1828.721 C 523.976 1828.854 523.81 1828.99 523.722 1829.128 C 523.673 1829.208 523.644 1829.288 523.634 1829.368 L 523.644 1829.374 C 523.634 1829.513 523.712 1829.655 523.859 1829.795 C 527.001 1832.876 565.09 1835.894 615.963 1837.188 C 622.755 1837.361 629.801 1837.503 637.003 1837.611 C 661.869 1837.983 685.212 1837.884 704.7 1837.413 C 736.134 1836.657 757.525 1834.93 759.018 1832.635 C 759.174 1832.396 759.096 1832.156 758.823 1831.918 C 747.093 1813.219 747.434 1794.051 754.958 1775.249 L 586.423 1772.738 C 554.96 1809.967 524.2 1828.721 524.2 1828.721 Z " fill="rgb(237,169,102)"/><path d=" M 687.798 1649.832 C 671.852 1649.298 655.467 1648.684 638.877 1648.213 C 631.089 1648.878 627.069 1649.283 627.069 1649.283 C 626.229 1682.601 616.119 1711.424 602.642 1735.453 C 600.651 1739.006 598.573 1742.455 596.435 1745.802 C 562.436 1798.994 512.529 1825.749 512.529 1825.749 L 512.538 1825.749 C 512.294 1825.871 512.129 1825.995 512.05 1826.119 C 512.002 1826.192 511.982 1826.264 511.982 1826.338 L 511.992 1826.343 C 512.002 1826.47 512.099 1826.599 512.285 1826.727 C 516.178 1829.547 558.883 1832.412 615.543 1833.743 C 623.116 1833.922 630.953 1834.073 638.965 1834.193 C 666.631 1834.606 692.55 1834.586 714.127 1834.214 C 748.947 1833.619 772.476 1832.109 773.832 1830.021 C 773.969 1829.804 773.851 1829.585 773.52 1829.366 C 749.132 1802.414 757.915 1774.485 779.092 1748.524 C 781.932 1745.042 785.016 1741.604 788.295 1738.221 C 834.386 1690.677 918.849 1653.954 918.849 1653.954 C 913.315 1653.209 908.533 1652.306 903.03 1651.656 C 898.863 1651.163 894.695 1650.697 890.548 1650.256 C 824.344 1652.395 755.007 1652.011 687.798 1649.832 Z " fill="rgb(249,192,125)"/><path d=" M 541.376 1827.116 C 573.502 1830.1 661.869 1836.508 750.616 1826.962 C 750.616 1826.962 735.236 1808.846 737.305 1804.145 C 739.383 1799.443 703.373 1796.407 712.029 1795.789 C 720.685 1795.17 742.877 1792.543 742.877 1792.543 C 742.877 1792.543 740.866 1785.119 749.669 1777.559 C 758.481 1770 744.028 1760.17 744.028 1760.17 L 753.348 1756.167 C 753.348 1756.167 751.182 1730.252 776.535 1720.426 C 801.889 1710.598 832.776 1690.055 845.96 1684.78 C 859.134 1679.504 832.336 1675.554 836.533 1675.174 C 840.729 1674.792 869.478 1671.08 871.694 1670.67 C 873.919 1670.259 896.647 1654.772 896.647 1654.772 C 896.647 1654.772 821.211 1645.808 772.836 1646.123 L 758.471 1653.156 L 738.28 1646.2 C 738.28 1646.2 652.032 1649.361 639.306 1650.937 C 639.306 1650.937 645.786 1666.416 641.326 1675.815 L 668.846 1676.52 L 630.845 1682.461 C 630.845 1682.461 632.953 1705.417 628.103 1713.333 C 623.253 1721.247 630.064 1730.298 630.064 1730.298 L 614.958 1732.053 C 614.958 1732.053 606.243 1738.992 602.369 1751.454 C 598.495 1763.917 589.331 1777.091 579.406 1786.853 C 569.481 1796.616 589.829 1801.503 589.829 1801.503 C 589.829 1801.503 567.803 1802.21 564.817 1802.314 C 561.821 1802.417 561.069 1805.068 550.13 1811.413 C 542.674 1815.735 535.423 1820.858 531.568 1823.683 C 529.734 1825.028 533.657 1826.399 541.376 1827.116 Z " fill="rgb(249,202,140)"/><path d=" M 777.931 1644.168 C 800.112 1644.499 820.997 1645.043 839.558 1645.737 C 845.472 1645.958 851.151 1646.193 856.558 1646.443 C 896.14 1648.264 921.493 1650.786 919.932 1653.198 C 918.41 1655.534 892.08 1657.225 853.132 1657.891 C 828.989 1658.306 799.995 1658.327 769.04 1657.867 C 760.072 1657.732 751.308 1657.564 742.828 1657.364 C 679.444 1655.874 631.665 1652.669 627.303 1649.515 C 627.108 1649.37 626.99 1649.227 626.981 1649.083 L 626.971 1649.079 C 626.971 1648.996 626.99 1648.915 627.039 1648.835 C 629.225 1645.474 682.821 1643.45 751.494 1643.888 L 751.572 1643.888 C 760.14 1643.941 768.952 1644.035 777.931 1644.168 Z " fill="rgb(244,177,110)"/><path d=" M 752.948 1641.765 L 742.828 1657.364 C 679.444 1655.874 631.665 1652.669 627.303 1649.515 C 627.117 1649.367 627.01 1649.225 626.981 1649.083 L 626.971 1649.079 C 626.151 1645.385 678.205 1642.146 742.135 1641.795 C 745.775 1641.776 749.386 1641.765 752.948 1641.765 Z " fill="rgb(199,125,40)"/><path d=" M 848.643 1644.848 C 852.04 1645.25 854.713 1645.681 856.558 1646.135 C 896.14 1647.956 921.493 1650.478 919.932 1652.891 C 918.41 1655.226 892.08 1656.917 853.132 1657.583 L 860.247 1646.61 L 838.328 1645.508 L 839.558 1645.429 L 848.643 1644.848 Z " fill="rgb(199,125,40)"/><path d=" M 849.024 1644.569 C 852.488 1644.876 855.221 1645.203 857.143 1645.542 C 859.056 1645.878 860.149 1646.225 860.354 1646.583 C 860.422 1646.699 860.383 1646.81 860.247 1646.918 C 857.28 1649.329 805.568 1649.749 748.801 1648.159 C 748.566 1648.153 750.586 1645.16 751.904 1643.252 C 752.528 1642.362 752.987 1641.708 752.987 1641.708 C 795.223 1641.873 831.438 1643.001 849.024 1644.569 Z " fill="rgb(199,125,40)"/><path d=" M -722.621 1664.021 C -722.621 1664.021 -740.011 1782.801 -644.716 1811.046 L -602.118 1809.596 L -579.214 1814.806 L -525.365 1806.297 L -477.254 1816.37 L -371.858 1815.154 L -295.105 1807.166 L -260.734 1815.154 L -170.23 1814.633 L -141.588 1809.771 L -125.837 1813.938 L -85.455 1809.771 L -60.248 1816.37 L 66.91 1814.981 L 143.663 1807.686 L 153.978 1816.37 L 218.133 1816.37 L 275.408 1811.046 L 298.322 1817.238 L 347.584 1816.37 L 370.498 1817.238 L 415.174 1808.902 L 455.274 1816.37 L 499.95 1817.238 C 499.95 1817.238 628.6 1688.215 583.749 1655.916 L 401.424 1649.104 L 355.606 1654.527 L 329.257 1647.234 L 284.572 1659.91 L 247.917 1646.114 L 45.148 1645.156 C 45.148 1645.156 -23.594 1654.874 -23.594 1654.354 C -23.594 1653.832 -49.943 1643.829 -49.943 1643.829 L -115.239 1645.156 L -142.74 1656.437 L -174.807 1646.887 L -194.286 1656.611 L -226.363 1645.156 L -430.284 1646.114 L -493.288 1656.263 L -532.245 1646.114 L -610.14 1649.104 L -620.455 1662.515 L -691.129 1651.524 L -716.688 1656.611 L -722.621 1664.021 Z " fill="rgb(249,202,140)"/></g></g></svg>