<?xml version="1.0" encoding="UTF-8" standalone="no"?><!-- Generator: Gravit.io --><svg xmlns="http://www.w3.org/2000/svg" xmlns:xlink="http://www.w3.org/1999/xlink" style="isolation:isolate" viewBox="0 0 796.872 871" width="796.872pt" height="871pt"><defs><clipPath id="_clipPath_n2uSOpskDT8il8xNSDbGXwNRwvCdEQ6m"><rect x="0" y="0" width="796.872" height="871"/></clipPath></defs><g clip-path="url(#_clipPath_n2uSOpskDT8il8xNSDbGXwNRwvCdEQ6m)"><g><path d=" M 776.624 784.783 C 776.624 784.783 794.325 781.713 794.325 778.644 C 794.325 775.58 786.738 745.925 784.211 715.948 C 783.432 706.706 783.373 701.733 783.67 699.282 L 767.783 690.714 C 767.783 690.714 785.478 644.705 785.478 606.876 C 785.478 569.047 793.059 496.454 793.059 496.454 L 748.821 483.158 L 790.532 476.002 C 790.532 466.208 790.532 452.338 790.287 435.503 C 790.532 418.667 790.532 404.792 790.532 394.998 L 748.821 387.842 L 793.059 374.546 C 793.059 374.546 785.478 301.958 785.478 264.124 C 785.478 226.3 767.783 180.286 767.783 180.286 L 783.67 171.718 C 783.373 169.267 783.432 164.299 784.211 155.053 C 786.738 125.075 794.325 95.426 794.325 92.356 C 794.325 89.287 776.624 86.218 776.624 86.218 L 795.586 74.974 C 795.586 74.974 797.466 63.801 796.681 49.439 C 796.681 48.985 796.681 48.531 796.667 48.077 C 796.661 47.694 796.648 47.311 796.635 46.928 C 796.608 46.244 796.575 45.565 796.522 44.887 C 796.502 44.641 796.489 44.395 796.47 44.148 C 796.404 43.36 796.324 42.578 796.232 41.801 C 796.166 41.188 796.08 40.576 795.994 39.968 C 795.981 39.897 795.975 39.831 795.962 39.766 C 795.929 39.53 795.896 39.301 795.856 39.071 C 795.81 38.803 795.764 38.535 795.724 38.261 C 795.658 37.9 795.592 37.539 795.52 37.178 C 795.46 36.85 795.394 36.516 795.328 36.188 C 795.289 36.007 795.249 35.826 795.209 35.646 C 795.078 35.022 794.932 34.398 794.787 33.786 C 794.728 33.561 794.682 33.348 794.616 33.129 C 794.147 31.274 793.593 29.447 792.96 27.658 C 792.828 27.275 792.689 26.892 792.551 26.514 C 792.267 25.754 791.977 24.999 791.666 24.249 C 791.363 23.516 791.046 22.788 790.716 22.061 C 790.545 21.683 790.367 21.3 790.189 20.922 C 790.017 20.556 789.839 20.195 789.661 19.834 C 789.483 19.473 789.298 19.112 789.106 18.75 C 788.737 18.034 788.355 17.322 787.952 16.617 C 787.76 16.272 787.563 15.927 787.352 15.582 C 786.949 14.882 786.52 14.182 786.085 13.498 C 785.9 13.197 785.709 12.907 785.517 12.617 L 785.425 12.475 L 785.405 12.442 C 785.082 11.955 784.739 11.479 784.383 11.019 C 784.205 10.789 784.026 10.565 783.841 10.341 C 783.703 10.171 783.558 10.007 783.406 9.843 C 782.773 9.11 782.093 8.42 781.367 7.775 C 781.236 7.643 781.09 7.523 780.945 7.397 C 780.47 6.976 779.968 6.577 779.46 6.194 C 779.23 6.018 778.999 5.854 778.761 5.69 C 778.247 5.329 777.725 4.984 777.184 4.662 C 777 4.547 776.808 4.437 776.624 4.328 C 776.096 4.021 775.568 3.737 775.04 3.474 C 774.776 3.343 774.519 3.217 774.248 3.097 C 774.064 3.009 773.886 2.927 773.694 2.845 C 773.562 2.785 773.43 2.73 773.292 2.676 C 772.632 2.391 771.966 2.134 771.293 1.899 C 771.128 1.844 770.963 1.789 770.798 1.735 C 770.026 1.477 769.247 1.253 768.456 1.056 C 768.291 1.018 768.126 0.974 767.961 0.936 C 767.802 0.897 767.644 0.865 767.486 0.826 C 766.166 0.536 764.82 0.317 763.468 0.186 C 763.316 0.17 763.157 0.153 763.006 0.142 C 762.484 0.093 761.964 0.06 761.442 0.038 C 761.218 0.027 760.994 0.016 760.776 0.016 C 760.472 0.005 760.169 0 759.865 0 L 670.73 0 C 669.351 1.319 668.038 2.692 666.778 4.109 C 666.54 4.377 666.309 4.645 666.078 4.913 L 666.045 4.952 C 665.827 5.209 665.61 5.466 665.392 5.728 C 665.161 6.002 664.937 6.276 664.712 6.555 C 664.488 6.828 664.27 7.107 664.053 7.386 C 663.828 7.671 663.611 7.95 663.406 8.229 C 662.977 8.798 662.555 9.367 662.146 9.947 C 661.928 10.248 661.717 10.554 661.513 10.861 C 660.754 11.949 660.035 13.066 659.355 14.198 C 659.151 14.532 658.946 14.882 658.748 15.221 C 658.458 15.73 658.168 16.239 657.884 16.759 C 657.693 17.103 657.515 17.448 657.336 17.793 L 657.27 17.913 C 657.053 18.334 656.835 18.756 656.63 19.183 C 656.406 19.631 656.188 20.08 655.977 20.534 C 655.858 20.791 655.74 21.048 655.627 21.306 C 654.651 23.467 653.793 25.677 653.061 27.942 C 652.949 28.292 652.837 28.632 652.731 28.982 C 652.474 29.802 652.236 30.634 652.019 31.477 C 651.959 31.707 651.9 31.942 651.834 32.177 C 651.801 32.352 651.755 32.527 651.708 32.708 C 651.484 33.6 651.286 34.502 651.108 35.411 C 651.042 35.75 650.976 36.084 650.917 36.423 L 650.904 36.494 C 650.838 36.866 650.772 37.238 650.712 37.616 L 650.692 37.725 C 650.627 38.146 650.561 38.568 650.501 38.994 C 650.448 39.383 650.396 39.766 650.349 40.154 C 650.33 40.269 650.323 40.39 650.303 40.51 C 650.263 40.86 650.224 41.21 650.191 41.566 C 650.158 41.861 650.138 42.162 650.112 42.469 C 650.105 42.551 650.092 42.627 650.085 42.709 C 650.052 43.081 650.026 43.448 650.006 43.82 C 649.993 43.995 649.98 44.165 649.973 44.34 C 649.954 44.712 649.934 45.073 649.92 45.44 L 649.92 45.467 C 649.907 45.85 649.894 46.227 649.881 46.61 L 649.881 46.616 L 649.881 46.621 C 649.868 47.114 649.868 47.606 649.868 48.099 C 649.868 52.153 650.237 56.12 650.956 59.977 C 652.474 68.189 655.542 75.904 659.87 82.842 L 137.005 82.842 C 141.327 75.904 144.401 68.189 145.919 59.977 C 146.638 56.12 147.007 52.153 147.007 48.099 C 147.007 47.606 147.007 47.114 146.994 46.621 C 146.981 46.222 146.967 45.833 146.954 45.44 C 146.948 45.286 146.941 45.133 146.935 44.975 C 146.915 44.597 146.895 44.214 146.869 43.836 L 146.869 43.76 L 146.862 43.683 C 146.842 43.388 146.823 43.098 146.796 42.802 C 146.783 42.605 146.756 42.408 146.743 42.212 C 146.71 41.829 146.677 41.445 146.631 41.062 C 146.624 40.991 146.618 40.92 146.611 40.844 C 146.598 40.762 146.585 40.674 146.578 40.587 C 146.545 40.269 146.506 39.968 146.459 39.651 L 146.459 39.635 C 146.374 38.961 146.275 38.283 146.163 37.616 C 146.103 37.227 146.037 36.85 145.965 36.467 C 145.879 35.996 145.793 35.531 145.701 35.071 L 145.694 35.049 C 145.622 34.688 145.543 34.327 145.463 33.966 L 145.45 33.9 C 145.351 33.446 145.239 32.992 145.127 32.538 C 145.081 32.325 145.021 32.106 144.969 31.892 C 144.87 31.526 144.777 31.17 144.678 30.809 C 144.553 30.371 144.434 29.934 144.302 29.502 C 144.236 29.272 144.163 29.042 144.091 28.818 C 144.025 28.593 143.952 28.369 143.88 28.139 C 143.741 27.701 143.59 27.258 143.438 26.821 L 143.431 26.793 C 143.299 26.421 143.167 26.044 143.029 25.672 L 142.996 25.579 L 142.969 25.502 C 142.798 25.053 142.626 24.599 142.448 24.156 C 142.244 23.636 142.032 23.116 141.815 22.597 C 141.663 22.236 141.505 21.885 141.346 21.53 C 141.313 21.453 141.28 21.382 141.247 21.306 C 141.089 20.95 140.924 20.594 140.759 20.244 C 140.443 19.576 140.119 18.909 139.783 18.252 C 139.717 18.121 139.651 17.995 139.585 17.87 C 139.519 17.749 139.453 17.623 139.393 17.503 C 139.209 17.158 139.017 16.813 138.832 16.469 C 138.714 16.266 138.602 16.058 138.483 15.856 C 138.371 15.654 138.259 15.451 138.133 15.243 C 137.902 14.833 137.658 14.428 137.414 14.029 C 137.295 13.832 137.17 13.629 137.051 13.427 C 136.926 13.23 136.801 13.033 136.668 12.83 C 136.464 12.508 136.253 12.179 136.035 11.856 C 135.738 11.397 135.428 10.937 135.112 10.489 C 134.854 10.122 134.597 9.761 134.34 9.4 C 134.062 9.011 133.779 8.628 133.488 8.251 L 133.449 8.202 C 133.165 7.824 132.875 7.452 132.585 7.085 C 132.287 6.719 131.997 6.347 131.694 5.986 C 131.489 5.739 131.285 5.493 131.08 5.247 C 130.539 4.612 129.998 3.994 129.437 3.381 C 129.16 3.075 128.877 2.774 128.593 2.468 C 128.309 2.167 128.019 1.866 127.729 1.57 C 127.498 1.33 127.267 1.094 127.029 0.865 C 126.739 0.575 126.455 0.295 126.158 0.011 L 126.145 0 L 36.897 0 C 36.587 0 36.277 0.005 35.96 0.016 C 35.776 0.016 35.578 0.022 35.393 0.038 C 34.806 0.055 34.219 0.093 33.638 0.153 C 33.368 0.175 33.104 0.203 32.84 0.235 C 32.028 0.323 31.23 0.443 30.425 0.591 C 29.963 0.673 29.508 0.772 29.046 0.87 L 29.026 0.875 C 28.703 0.952 28.373 1.029 28.05 1.116 C 27.304 1.302 26.565 1.521 25.846 1.762 C 25.688 1.811 25.536 1.866 25.384 1.92 C 25.213 1.975 25.048 2.035 24.883 2.101 C 24.639 2.189 24.395 2.276 24.15 2.375 L 24.058 2.413 C 23.834 2.5 23.623 2.593 23.405 2.681 C 23.121 2.801 22.851 2.927 22.574 3.053 C 22.303 3.179 22.033 3.305 21.762 3.441 C 21.531 3.556 21.307 3.671 21.089 3.786 C 20.733 3.978 20.383 4.169 20.047 4.372 C 19.888 4.459 19.73 4.552 19.578 4.645 C 19.479 4.711 19.374 4.766 19.281 4.831 C 19.083 4.957 18.879 5.083 18.681 5.214 C 18.556 5.296 18.43 5.384 18.311 5.466 C 18.199 5.543 18.094 5.619 17.988 5.696 C 17.058 6.352 16.174 7.069 15.342 7.84 C 15.283 7.895 15.224 7.95 15.164 8.01 C 15.026 8.13 14.9 8.256 14.775 8.382 C 14.65 8.502 14.524 8.628 14.399 8.76 C 14.326 8.836 14.247 8.918 14.175 9 C 14.102 9.077 14.03 9.154 13.957 9.23 C 13.898 9.296 13.838 9.356 13.785 9.422 C 13.667 9.548 13.554 9.673 13.449 9.805 C 13.192 10.1 12.941 10.407 12.703 10.713 C 12.565 10.888 12.426 11.074 12.295 11.255 C 12.09 11.528 11.892 11.813 11.7 12.092 C 11.245 12.776 10.797 13.465 10.374 14.16 C 10.19 14.455 10.012 14.756 9.833 15.057 C 9.728 15.227 9.629 15.396 9.523 15.566 C 9.385 15.801 9.246 16.037 9.114 16.266 C 8.897 16.649 8.685 17.038 8.474 17.421 C 8.296 17.755 8.111 18.088 7.94 18.422 C 7.762 18.75 7.59 19.09 7.419 19.423 C 7.339 19.576 7.26 19.73 7.188 19.888 C 6.937 20.392 6.693 20.895 6.462 21.404 C 6.363 21.606 6.264 21.814 6.172 22.017 C 6.053 22.29 5.928 22.564 5.809 22.843 C 5.479 23.587 5.169 24.337 4.865 25.092 L 4.845 25.141 C 4.7 25.513 4.555 25.885 4.417 26.257 C 4.199 26.832 3.994 27.401 3.803 27.981 C 3.704 28.249 3.612 28.522 3.526 28.796 C 3.288 29.502 3.071 30.218 2.86 30.935 C 2.767 31.236 2.681 31.542 2.596 31.849 C 2.497 32.21 2.398 32.576 2.299 32.943 C 2.233 33.222 2.16 33.507 2.094 33.786 C 1.883 34.623 1.692 35.471 1.52 36.324 C 1.421 36.811 1.322 37.304 1.237 37.791 C 1.164 38.179 1.105 38.562 1.039 38.951 C 0.992 39.219 0.953 39.487 0.913 39.766 C 0.669 41.385 0.484 43.027 0.366 44.679 C 0.339 44.996 0.319 45.314 0.306 45.637 C 0.28 46.014 0.267 46.392 0.247 46.769 C 0.24 46.851 0.24 46.933 0.234 47.015 C 0.227 47.355 0.214 47.699 0.207 48.044 C 0.201 48.504 0.194 48.974 0.194 49.439 C -0.598 63.801 1.289 74.974 1.289 74.974 L 20.245 86.218 C 20.245 86.218 2.549 89.287 2.549 92.356 C 2.549 95.426 10.137 125.075 12.664 155.053 C 13.442 164.299 13.502 169.267 13.211 171.718 L 29.092 180.286 C 29.092 180.286 11.397 226.3 11.397 264.124 C 11.397 301.958 3.816 374.546 3.816 374.546 L 26.427 388.181 L 6.343 394.998 C 6.343 407.528 6.343 419.264 6.851 435.503 C 6.343 451.742 6.343 463.472 6.343 476.002 L 26.427 482.819 L 3.816 496.454 C 3.816 496.454 11.397 569.047 11.397 606.876 C 11.397 644.705 29.092 690.714 29.092 690.714 L 13.211 699.282 C 13.502 701.733 13.442 706.706 12.664 715.948 C 10.137 745.925 2.549 775.58 2.549 778.644 C 2.549 781.713 20.245 784.783 20.245 784.783 L 1.289 796.026 C 1.289 796.026 -0.598 807.199 0.194 821.561 C 0.194 822.031 0.201 822.497 0.207 822.962 C 0.214 823.306 0.227 823.646 0.234 823.99 C 0.24 824.067 0.24 824.149 0.247 824.231 C 0.267 824.608 0.28 824.991 0.306 825.369 C 0.319 825.686 0.339 826.004 0.366 826.326 C 0.484 827.979 0.669 829.615 0.913 831.24 C 0.953 831.513 0.992 831.781 1.039 832.049 C 1.105 832.438 1.164 832.826 1.237 833.209 C 1.322 833.702 1.421 834.189 1.52 834.676 C 1.692 835.529 1.883 836.377 2.094 837.22 C 2.16 837.499 2.233 837.778 2.299 838.057 C 2.398 838.429 2.497 838.79 2.596 839.157 C 2.681 839.458 2.767 839.764 2.86 840.065 C 3.071 840.787 3.288 841.499 3.526 842.204 C 3.612 842.478 3.704 842.751 3.803 843.02 C 3.994 843.6 4.199 844.174 4.417 844.743 C 4.555 845.115 4.7 845.487 4.845 845.859 L 4.865 845.908 C 5.169 846.663 5.479 847.419 5.809 848.157 C 5.928 848.436 6.053 848.71 6.172 848.983 C 6.264 849.191 6.363 849.399 6.462 849.602 C 6.693 850.105 6.937 850.608 7.188 851.112 C 7.26 851.27 7.339 851.429 7.419 851.582 C 7.59 851.91 7.762 852.25 7.94 852.578 C 8.111 852.917 8.296 853.246 8.474 853.579 C 8.685 853.968 8.897 854.351 9.114 854.734 C 9.246 854.969 9.385 855.199 9.523 855.434 C 9.629 855.604 9.728 855.779 9.833 855.948 C 10.012 856.249 10.19 856.545 10.374 856.84 C 10.797 857.535 11.245 858.224 11.7 858.908 C 11.892 859.193 12.09 859.472 12.295 859.745 C 12.426 859.926 12.565 860.112 12.703 860.287 C 12.941 860.599 13.192 860.9 13.449 861.201 C 13.554 861.327 13.667 861.453 13.785 861.578 C 13.838 861.644 13.898 861.704 13.957 861.77 C 14.03 861.852 14.102 861.929 14.175 862.005 C 14.247 862.082 14.326 862.164 14.399 862.24 C 14.524 862.372 14.65 862.498 14.775 862.618 C 14.9 862.744 15.026 862.87 15.164 862.99 C 15.224 863.05 15.283 863.11 15.342 863.16 C 16.174 863.937 17.058 864.648 17.988 865.304 C 18.094 865.381 18.199 865.458 18.311 865.534 C 18.43 865.622 18.556 865.704 18.681 865.786 C 18.879 865.923 19.083 866.048 19.281 866.174 C 19.374 866.234 19.479 866.295 19.578 866.355 C 19.73 866.448 19.888 866.546 20.047 866.628 C 20.383 866.831 20.733 867.028 21.089 867.214 C 21.307 867.329 21.531 867.449 21.762 867.559 C 22.033 867.695 22.303 867.827 22.574 867.952 C 22.851 868.078 23.121 868.199 23.405 868.319 C 23.623 868.407 23.834 868.505 24.058 868.587 L 24.15 868.625 C 24.395 868.724 24.639 868.811 24.883 868.904 C 25.048 868.965 25.213 869.025 25.384 869.085 C 25.536 869.134 25.688 869.189 25.846 869.238 C 26.565 869.484 27.304 869.698 28.05 869.889 C 28.373 869.971 28.703 870.048 29.026 870.125 L 29.046 870.13 C 29.508 870.234 29.963 870.327 30.425 870.415 C 31.23 870.557 32.028 870.677 32.84 870.77 C 33.104 870.798 33.368 870.825 33.638 870.847 C 34.219 870.907 34.806 870.945 35.393 870.967 C 35.578 870.978 35.776 870.984 35.96 870.989 C 36.277 870.995 36.587 871 36.897 871 L 126.145 871 L 126.158 870.995 C 126.455 870.71 126.739 870.426 127.029 870.141 C 127.267 869.906 127.498 869.67 127.729 869.435 C 128.019 869.134 128.309 868.833 128.593 868.532 C 128.877 868.232 129.16 867.931 129.437 867.619 C 129.998 867.006 130.539 866.388 131.08 865.753 C 131.285 865.507 131.489 865.266 131.694 865.02 C 131.997 864.653 132.287 864.287 132.585 863.915 C 132.875 863.548 133.165 863.176 133.449 862.804 L 133.488 862.755 C 133.779 862.372 134.062 861.989 134.34 861.6 C 134.597 861.245 134.854 860.878 135.112 860.517 C 135.428 860.063 135.738 859.603 136.035 859.144 C 136.253 858.821 136.464 858.493 136.668 858.17 C 136.801 857.967 136.926 857.77 137.051 857.573 C 137.17 857.371 137.295 857.168 137.414 856.971 C 137.658 856.572 137.902 856.167 138.133 855.757 C 138.259 855.554 138.371 855.352 138.483 855.15 C 138.602 854.942 138.714 854.734 138.832 854.531 C 139.017 854.192 139.209 853.847 139.393 853.497 C 139.453 853.377 139.519 853.251 139.585 853.131 C 139.651 853.005 139.717 852.879 139.783 852.748 C 140.119 852.091 140.443 851.429 140.759 850.756 C 140.924 850.406 141.089 850.056 141.247 849.7 C 141.28 849.623 141.313 849.552 141.346 849.476 C 141.505 849.12 141.663 848.764 141.815 848.403 C 142.032 847.889 142.244 847.364 142.448 846.844 C 142.626 846.401 142.798 845.952 142.969 845.498 L 142.996 845.421 L 143.029 845.334 C 143.167 844.956 143.299 844.579 143.431 844.207 L 143.438 844.179 C 143.59 843.742 143.741 843.299 143.88 842.861 C 143.952 842.631 144.025 842.407 144.091 842.182 C 144.163 841.958 144.236 841.728 144.302 841.499 C 144.434 841.066 144.553 840.634 144.678 840.191 C 144.777 839.835 144.87 839.474 144.969 839.108 C 145.021 838.894 145.081 838.681 145.127 838.462 C 145.239 838.008 145.351 837.554 145.45 837.1 L 145.463 837.034 C 145.543 836.673 145.622 836.317 145.694 835.951 L 145.701 835.934 C 145.793 835.469 145.879 835.004 145.965 834.539 C 146.037 834.156 146.103 833.773 146.163 833.384 C 146.275 832.717 146.374 832.044 146.459 831.371 L 146.459 831.349 C 146.506 831.037 146.545 830.731 146.578 830.419 C 146.585 830.326 146.598 830.244 146.611 830.156 C 146.618 830.085 146.624 830.014 146.631 829.938 C 146.677 829.56 146.71 829.172 146.743 828.789 C 146.756 828.592 146.783 828.395 146.796 828.198 C 146.823 827.908 146.842 827.612 146.862 827.322 L 146.869 827.246 L 146.869 827.164 C 146.895 826.786 146.915 826.403 146.935 826.026 C 146.941 825.872 146.948 825.719 146.954 825.56 C 146.967 825.167 146.981 824.778 146.994 824.384 C 147.007 823.892 147.007 823.394 147.007 822.901 C 147.007 818.847 146.638 814.88 145.919 811.023 C 144.401 802.811 141.327 795.096 137.005 788.158 L 659.87 788.158 C 655.542 795.096 652.474 802.811 650.956 811.023 C 650.237 814.88 649.868 818.847 649.868 822.901 C 649.868 823.394 649.868 823.892 649.881 824.379 L 649.881 824.39 L 649.881 824.395 C 649.894 824.773 649.907 825.15 649.92 825.533 L 649.92 825.56 C 649.934 825.927 649.954 826.294 649.973 826.66 C 649.98 826.835 649.993 827.005 650.006 827.18 C 650.026 827.558 650.052 827.924 650.085 828.291 C 650.092 828.373 650.105 828.455 650.112 828.537 C 650.138 828.838 650.158 829.139 650.191 829.44 C 650.224 829.79 650.263 830.14 650.303 830.49 C 650.323 830.616 650.33 830.731 650.349 830.846 C 650.396 831.234 650.448 831.623 650.501 832.006 C 650.561 832.432 650.627 832.854 650.692 833.281 L 650.712 833.384 C 650.772 833.762 650.838 834.134 650.904 834.512 L 650.917 834.583 C 650.976 834.917 651.042 835.256 651.108 835.589 C 651.286 836.498 651.484 837.4 651.708 838.298 C 651.755 838.478 651.801 838.653 651.834 838.828 C 651.9 839.058 651.959 839.294 652.019 839.529 C 652.236 840.366 652.474 841.198 652.731 842.018 C 652.837 842.368 652.949 842.713 653.061 843.058 C 653.793 845.323 654.651 847.539 655.627 849.7 C 655.74 849.952 655.858 850.209 655.977 850.466 C 656.188 850.92 656.406 851.369 656.63 851.817 C 656.835 852.244 657.053 852.666 657.27 853.092 L 657.336 853.207 C 657.515 853.552 657.693 853.897 657.884 854.247 C 658.168 854.761 658.458 855.275 658.748 855.779 C 658.946 856.123 659.151 856.468 659.355 856.807 C 660.035 857.94 660.754 859.051 661.513 860.145 C 661.717 860.451 661.928 860.752 662.146 861.053 C 662.555 861.633 662.977 862.208 663.406 862.771 C 663.611 863.056 663.828 863.335 664.053 863.614 C 664.27 863.893 664.488 864.172 664.712 864.445 C 664.937 864.724 665.161 864.998 665.392 865.272 C 665.61 865.534 665.827 865.797 666.045 866.048 L 666.078 866.087 C 666.309 866.355 666.54 866.628 666.778 866.891 C 668.038 868.308 669.351 869.687 670.73 871 L 759.865 871 C 760.169 871 760.472 870.995 760.776 870.989 C 760.994 870.984 761.218 870.973 761.442 870.967 C 761.964 870.945 762.484 870.907 763.006 870.863 C 763.157 870.847 763.316 870.836 763.468 870.819 C 764.82 870.683 766.166 870.469 767.486 870.174 C 767.644 870.141 767.802 870.103 767.961 870.064 C 768.126 870.026 768.291 869.988 768.456 869.944 C 769.247 869.747 770.026 869.523 770.798 869.266 C 770.963 869.211 771.128 869.162 771.293 869.101 C 771.966 868.866 772.632 868.609 773.292 868.33 C 773.43 868.275 773.562 868.215 773.694 868.16 C 773.886 868.078 774.064 867.991 774.248 867.903 C 774.519 867.783 774.776 867.657 775.04 867.531 C 775.568 867.263 776.096 866.979 776.624 866.678 C 776.808 866.568 777 866.453 777.184 866.344 C 777.725 866.021 778.247 865.671 778.761 865.315 C 778.999 865.146 779.23 864.982 779.46 864.806 C 779.968 864.423 780.47 864.024 780.945 863.608 C 781.09 863.482 781.236 863.362 781.367 863.231 C 782.093 862.58 782.773 861.89 783.406 861.157 C 783.558 860.998 783.703 860.829 783.841 860.659 C 784.026 860.435 784.205 860.211 784.383 859.981 C 784.739 859.521 785.082 859.045 785.405 858.564 L 785.425 858.525 L 785.517 858.389 C 785.709 858.093 785.9 857.803 786.085 857.508 C 786.52 856.818 786.949 856.123 787.352 855.423 C 787.563 855.078 787.76 854.728 787.952 854.384 C 788.355 853.678 788.737 852.966 789.106 852.25 C 789.298 851.889 789.483 851.533 789.661 851.166 C 789.839 850.805 790.017 850.444 790.189 850.078 C 790.367 849.7 790.545 849.323 790.716 848.945 C 791.046 848.217 791.363 847.49 791.666 846.751 C 791.977 846.001 792.267 845.246 792.551 844.486 C 792.689 844.108 792.828 843.725 792.96 843.348 C 793.593 841.553 794.147 839.731 794.616 837.876 C 794.682 837.652 794.728 837.439 794.787 837.22 C 794.932 836.602 795.078 835.978 795.209 835.354 C 795.249 835.174 795.289 834.993 795.328 834.813 C 795.394 834.484 795.46 834.156 795.52 833.822 C 795.592 833.461 795.658 833.105 795.724 832.739 C 795.764 832.471 795.81 832.203 795.856 831.929 C 795.896 831.699 795.929 831.475 795.962 831.24 C 795.975 831.169 795.981 831.103 795.994 831.032 C 796.08 830.425 796.166 829.817 796.232 829.199 C 796.324 828.422 796.404 827.64 796.47 826.852 C 796.489 826.606 796.502 826.359 796.522 826.113 C 796.575 825.435 796.608 824.756 796.635 824.072 C 796.648 823.689 796.661 823.312 796.667 822.923 C 796.681 822.469 796.681 822.015 796.681 821.561 C 797.466 807.199 795.586 796.026 795.586 796.026 L 776.624 784.783 Z " fill="rgb(234,173,113)"/><path d=" M 759.43 206.872 L 742.579 174.153 L 764.484 155.747 L 774.591 110.078 L 746.789 82.842 L 768.693 42.594 C 768.693 42.594 724.039 -12.617 597.666 20.102 C 471.286 52.82 184.826 9.739 184.826 9.739 C 184.826 9.739 56.763 -13.979 22.217 56.913 L 59.29 105.307 L 18.846 107.353 L 33.17 152.339 L 58.446 190.512 L 30.643 228.68 L 18.846 369.781 L 60.135 394.32 L 23.062 405.224 L 24.599 435.503 L 23.062 465.776 L 60.135 476.686 L 18.846 501.225 L 30.643 642.32 L 58.446 680.493 L 33.17 718.661 L 18.846 763.652 L 59.29 765.693 L 22.217 814.093 C 56.763 884.979 184.826 861.261 184.826 861.261 C 184.826 861.261 471.286 818.18 597.666 850.898 C 724.039 883.617 768.693 828.406 768.693 828.406 L 746.789 788.158 L 774.591 760.922 L 764.484 715.253 L 742.579 696.853 L 759.43 664.134 L 774.591 507.358 L 721.513 477.364 C 721.513 477.364 768.693 467.822 768.277 456.458 C 768.192 454.171 768.139 446.418 768.113 435.503 C 768.139 424.582 768.192 416.829 768.277 414.542 C 768.693 403.178 721.513 393.636 721.513 393.636 L 774.591 363.642 L 759.43 206.872 Z " fill="rgb(249,202,140)"/><path d=" M 59.811 858.131 L 59.818 858.131 C 59.91 857.995 60.003 857.858 60.082 857.716 C 60.194 857.551 60.3 857.376 60.405 857.207 C 60.775 856.605 61.131 856.003 61.481 855.396 C 61.705 855.013 61.923 854.619 62.134 854.23 C 62.648 853.284 63.136 852.337 63.598 851.374 C 63.809 850.953 64.014 850.526 64.199 850.099 C 64.806 848.781 65.36 847.446 65.862 846.1 C 65.974 845.794 66.086 845.487 66.191 845.175 C 66.251 845.028 66.304 844.88 66.356 844.732 C 66.495 844.338 66.62 843.95 66.746 843.556 C 66.844 843.266 66.937 842.97 67.023 842.669 C 67.405 841.46 67.735 840.24 68.025 839.004 C 68.111 838.675 68.184 838.347 68.25 838.019 C 68.461 837.094 68.639 836.158 68.797 835.223 C 68.817 835.124 68.831 835.031 68.85 834.933 L 68.87 834.791 C 68.916 834.501 68.969 834.2 69.009 833.904 C 69.042 833.685 69.068 833.472 69.094 833.264 C 69.154 832.854 69.207 832.432 69.253 832.017 C 69.292 831.688 69.325 831.36 69.358 831.037 C 69.378 830.786 69.404 830.545 69.418 830.299 C 69.438 830.113 69.451 829.927 69.464 829.741 C 69.484 829.483 69.504 829.226 69.51 828.969 C 69.582 827.82 69.622 826.671 69.622 825.511 C 69.622 811.888 64.845 799.123 56.532 788.158 L 740.343 788.158 C 732.023 799.123 727.259 811.888 727.259 825.511 C 727.259 827.333 727.351 829.122 727.516 830.906 C 727.569 831.508 727.635 832.11 727.715 832.706 C 727.761 833.051 727.813 833.401 727.86 833.74 C 727.899 834.068 727.952 834.397 728.011 834.725 C 728.546 838.123 729.39 841.444 730.512 844.672 C 731.825 848.485 733.527 852.168 735.585 855.708 C 735.698 855.905 735.81 856.102 735.929 856.304 C 736.061 856.534 736.199 856.764 736.338 856.993 C 736.45 857.174 736.569 857.365 736.681 857.541 C 736.747 857.65 736.813 857.754 736.879 857.852 C 742.579 866.678 751.222 871 759.865 871 L 747.501 871 L 728.79 871 L 61.494 871 L 49.38 871 L 36.897 871 C 45.494 871 54.111 866.771 59.811 858.131 Z " fill="rgb(252,213,167)"/><path d=" M 59.811 12.798 L 59.818 12.798 C 59.91 12.934 60.003 13.071 60.082 13.213 C 60.194 13.383 60.3 13.553 60.405 13.722 C 60.775 14.319 61.137 14.915 61.487 15.522 C 61.705 15.905 61.923 16.294 62.134 16.682 C 62.648 17.618 63.136 18.564 63.598 19.522 C 63.809 19.943 64.014 20.364 64.199 20.791 C 64.806 22.099 65.36 23.428 65.862 24.769 C 65.974 25.075 66.086 25.376 66.191 25.688 C 66.251 25.836 66.304 25.983 66.356 26.131 C 66.495 26.52 66.62 26.908 66.746 27.297 C 66.844 27.587 66.937 27.882 67.029 28.177 C 67.405 29.381 67.735 30.601 68.025 31.827 C 68.111 32.155 68.184 32.483 68.256 32.806 C 68.461 33.725 68.639 34.656 68.797 35.586 C 68.817 35.684 68.831 35.777 68.85 35.876 C 68.857 35.925 68.863 35.974 68.87 36.018 C 68.923 36.308 68.969 36.603 69.009 36.899 C 69.042 37.118 69.068 37.326 69.094 37.533 C 69.154 37.944 69.207 38.36 69.253 38.775 C 69.292 39.104 69.325 39.432 69.358 39.749 C 69.378 39.996 69.404 40.236 69.418 40.482 C 69.438 40.669 69.451 40.855 69.464 41.041 C 69.484 41.292 69.504 41.555 69.517 41.807 C 69.589 42.95 69.622 44.088 69.622 45.243 C 69.622 58.795 64.845 71.489 56.532 82.393 L 740.343 82.393 C 732.023 71.489 727.259 58.795 727.259 45.243 C 727.259 43.437 727.351 41.653 727.516 39.881 C 727.569 39.284 727.635 38.683 727.715 38.092 C 727.761 37.747 727.813 37.397 727.86 37.057 C 727.899 36.735 727.952 36.406 728.011 36.078 C 728.546 32.702 729.39 29.403 730.512 26.186 C 731.825 22.394 733.527 18.728 735.585 15.216 C 735.698 15.013 735.81 14.816 735.929 14.619 C 736.061 14.395 736.199 14.165 736.338 13.936 C 736.45 13.75 736.569 13.563 736.688 13.388 C 736.747 13.279 736.813 13.175 736.879 13.077 C 742.579 4.301 751.222 0 759.865 0 L 747.501 0 L 728.797 0 L 61.494 0 L 49.38 0 L 36.897 0 C 45.494 0 54.111 4.208 59.811 12.798 Z " fill="rgb(252,213,167)"/></g></g></svg>