<?xml version="1.0" encoding="UTF-8" standalone="no"?><!-- Generator: Gravit.io --><svg xmlns="http://www.w3.org/2000/svg" xmlns:xlink="http://www.w3.org/1999/xlink" style="isolation:isolate" viewBox="4029.254 196.527 1205.298 1142.473" width="1205.298pt" height="1142.473pt"><defs><clipPath id="_clipPath_Fdt9f50nJsrcT33LaTaCehVNwN5IhztP"><rect x="4029.254" y="196.527" width="1205.298" height="1142.473"/></clipPath></defs><g clip-path="url(#_clipPath_Fdt9f50nJsrcT33LaTaCehVNwN5IhztP)"><path d=" M 4031.96 1257.482 C 4032.05 1257.048 4032.14 1256.614 4032.25 1256.197 C 4032.58 1254.746 4032.94 1253.319 4033.32 1251.901 C 4033.57 1250.95 4033.83 1250.007 4034.1 1249.073 C 4034.37 1248.122 4034.65 1247.18 4034.94 1246.245 L 4034.94 1246.237 C 4035.23 1245.303 4035.53 1244.377 4035.83 1243.459 C 4035.94 1243.134 4036.04 1242.817 4036.15 1242.5 C 4036.41 1241.724 4036.67 1240.948 4036.93 1240.189 C 4038.9 1234.591 4041.07 1229.369 4043.22 1224.673 C 4043.42 1224.214 4043.64 1223.763 4043.84 1223.321 C 4043.94 1223.096 4044.05 1222.871 4044.15 1222.654 C 4044.57 1221.77 4044.98 1220.911 4045.38 1220.076 C 4045.59 1219.651 4045.8 1219.234 4046 1218.833 C 4046.3 1218.224 4046.6 1217.624 4046.9 1217.04 C 4047.2 1216.448 4047.49 1215.88 4047.78 1215.321 C 4048.07 1214.762 4048.36 1214.212 4048.64 1213.686 C 4049.01 1212.977 4049.38 1212.293 4049.74 1211.643 C 4049.92 1211.317 4050.09 1211 4050.27 1210.675 C 4050.45 1210.366 4050.62 1210.058 4050.79 1209.757 C 4050.96 1209.457 4051.12 1209.165 4051.29 1208.881 C 4051.45 1208.589 4051.6 1208.314 4051.76 1208.039 C 4051.92 1207.772 4052.07 1207.505 4052.22 1207.246 C 4052.37 1206.988 4052.51 1206.738 4052.66 1206.496 C 4052.87 1206.137 4053.08 1205.786 4053.28 1205.461 C 4053.34 1205.353 4053.4 1205.244 4053.47 1205.144 C 4053.59 1204.927 4053.72 1204.727 4053.83 1204.527 C 4055.14 1202.383 4055.93 1201.207 4055.93 1201.207 L 5207.87 1201.207 C 5207.87 1201.207 5235.22 1241.974 5234.54 1282.132 C 5234.54 1282.441 5234.53 1282.75 5234.52 1283.067 C 5234.51 1283.392 5234.5 1283.726 5234.49 1284.051 C 5234.47 1284.276 5234.47 1284.493 5234.46 1284.71 C 5234.43 1285.261 5234.4 1285.803 5234.36 1286.345 C 5234.36 1286.47 5234.35 1286.604 5234.33 1286.737 C 5234.3 1287.121 5234.27 1287.513 5234.25 1287.897 C 5234.21 1288.297 5234.17 1288.698 5234.13 1289.098 C 5234 1290.333 5233.84 1291.567 5233.66 1292.785 C 5233.6 1293.152 5233.54 1293.528 5233.47 1293.895 C 5233.41 1294.295 5233.34 1294.687 5233.26 1295.088 C 5233.08 1296.055 5232.88 1297.023 5232.66 1297.982 C 5232.6 1298.249 5232.53 1298.516 5232.47 1298.775 C 5232.27 1299.601 5232.05 1300.418 5231.81 1301.236 C 5231.73 1301.544 5231.64 1301.853 5231.54 1302.17 C 5231.43 1302.537 5231.32 1302.896 5231.2 1303.254 C 5231.07 1303.672 5230.94 1304.08 5230.79 1304.489 C 5230.66 1304.873 5230.53 1305.257 5230.39 1305.64 L 5230.38 1305.649 C 5230.24 1306.032 5230.1 1306.416 5229.95 1306.8 C 5229.8 1307.183 5229.65 1307.559 5229.49 1307.951 C 5229.37 1308.243 5229.24 1308.543 5229.12 1308.844 C 5228.76 1309.678 5228.37 1310.512 5227.97 1311.346 C 5227.86 1311.571 5227.75 1311.813 5227.63 1312.039 C 5227.59 1312.13 5227.54 1312.222 5227.49 1312.314 C 5227.34 1312.622 5227.18 1312.94 5227.01 1313.248 C 5226.85 1313.54 5226.7 1313.832 5226.54 1314.124 C 5225.83 1315.417 5225.07 1316.693 5224.24 1317.953 L 5224.19 1318.045 C 5223.91 1318.454 5223.64 1318.854 5223.36 1319.263 C 5214.93 1331.242 5201.33 1337.715 5187.22 1338.817 C 5185.9 1338.925 5184.58 1338.983 5183.25 1339 L 5182.2 1339 L 5157.94 1338.925 L 5126.75 1338.825 L 5035.03 1338.533 L 5027.8 1338.516 L 4916.64 1338.157 L 4528.07 1336.923 L 4147.32 1335.721 L 4109.37 1335.605 L 4081.8 1335.513 L 4080.3 1335.513 C 4079.44 1335.496 4078.58 1335.463 4077.72 1335.413 C 4077.3 1335.388 4076.87 1335.354 4076.45 1335.321 C 4076.02 1335.288 4075.59 1335.246 4075.17 1335.204 L 4075.17 1335.196 C 4074.81 1335.163 4074.45 1335.121 4074.1 1335.079 C 4071.99 1334.837 4069.88 1334.47 4067.82 1333.986 C 4067.47 1333.903 4067.14 1333.82 4066.79 1333.736 C 4066.38 1333.636 4065.97 1333.528 4065.57 1333.419 C 4065.39 1333.369 4065.21 1333.319 4065.03 1333.269 C 4064.03 1332.985 4063.03 1332.668 4062.04 1332.335 L 4061.91 1332.285 C 4061.38 1332.101 4060.87 1331.909 4060.35 1331.709 L 4060.31 1331.701 C 4059.8 1331.509 4059.3 1331.3 4058.8 1331.1 L 4058.6 1331.017 C 4058.15 1330.825 4057.7 1330.625 4057.26 1330.424 L 4057.25 1330.416 C 4056.76 1330.191 4056.27 1329.966 4055.8 1329.724 L 4055.64 1329.64 C 4055.25 1329.457 4054.85 1329.256 4054.47 1329.048 L 4054.22 1328.914 C 4053.76 1328.672 4053.31 1328.422 4052.87 1328.164 L 4052.8 1328.122 C 4052.34 1327.855 4051.9 1327.588 4051.46 1327.313 L 4051.31 1327.221 C 4050.62 1326.787 4049.96 1326.345 4049.29 1325.886 C 4049.07 1325.728 4048.84 1325.569 4048.62 1325.402 C 4048.39 1325.236 4048.16 1325.069 4047.93 1324.894 C 4047.72 1324.735 4047.51 1324.568 4047.3 1324.401 C 4046.91 1324.109 4046.55 1323.809 4046.17 1323.492 C 4046.02 1323.367 4045.86 1323.242 4045.71 1323.108 L 4045.38 1322.816 C 4044.5 1322.049 4043.64 1321.24 4042.83 1320.406 C 4042.62 1320.197 4042.41 1319.972 4042.2 1319.755 C 4040.48 1317.911 4038.9 1315.901 4037.5 1313.74 C 4037.38 1313.565 4037.27 1313.382 4037.16 1313.206 C 4036.99 1312.948 4036.83 1312.681 4036.68 1312.414 C 4036.52 1312.147 4036.36 1311.872 4036.21 1311.605 C 4035.82 1310.912 4035.45 1310.22 4035.1 1309.511 C 4034.98 1309.269 4034.86 1309.035 4034.75 1308.794 C 4034.63 1308.527 4034.51 1308.268 4034.39 1308.001 C 4034.17 1307.492 4033.94 1306.975 4033.74 1306.458 C 4033.61 1306.157 4033.5 1305.857 4033.39 1305.548 C 4033.23 1305.131 4033.08 1304.714 4032.94 1304.297 C 4032.86 1304.08 4032.8 1303.88 4032.73 1303.663 C 4032.56 1303.138 4032.39 1302.62 4032.24 1302.095 C 4032.04 1301.444 4031.86 1300.785 4031.68 1300.135 C 4031.6 1299.826 4031.52 1299.526 4031.45 1299.217 C 4031.31 1298.683 4031.18 1298.141 4031.06 1297.59 C 4031 1297.357 4030.95 1297.123 4030.9 1296.881 C 4030.81 1296.439 4030.71 1295.997 4030.63 1295.555 C 4030.56 1295.246 4030.51 1294.937 4030.46 1294.629 C 4030.4 1294.329 4030.35 1294.011 4030.3 1293.703 C 4030.2 1293.086 4030.1 1292.468 4030.01 1291.851 C 4029.97 1291.551 4029.92 1291.234 4029.89 1290.917 C 4029.73 1289.682 4029.6 1288.447 4029.51 1287.196 C 4029.48 1286.888 4029.45 1286.579 4029.44 1286.262 C 4029.41 1285.945 4029.4 1285.645 4029.38 1285.327 C 4028.87 1275.959 4029.95 1266.508 4031.96 1257.482 Z " fill="rgb(199,125,40)"/><path d=" M 4075.17 1335.204 L 4075.17 1335.196 C 4075.59 1335.246 4076.02 1335.28 4076.45 1335.321 C 4076.02 1335.288 4075.59 1335.246 4075.17 1335.204 Z " fill="rgb(249,192,125)"/><path d=" M 4031.96 278.044 C 4032.05 278.48 4032.14 278.908 4032.25 279.331 C 4032.58 280.776 4032.94 282.21 4033.32 283.624 C 4033.57 284.578 4033.83 285.518 4034.1 286.452 C 4034.37 287.406 4034.65 288.346 4034.94 289.28 L 4034.94 289.287 C 4035.23 290.221 4035.53 291.149 4035.83 292.071 C 4035.94 292.39 4036.04 292.709 4036.15 293.03 C 4036.41 293.804 4036.67 294.578 4036.93 295.34 C 4038.9 300.932 4041.07 306.159 4043.22 310.856 C 4043.42 311.31 4043.64 311.764 4043.84 312.206 C 4043.94 312.43 4044.05 312.654 4044.15 312.872 C 4044.57 313.755 4044.98 314.612 4045.38 315.45 C 4045.59 315.873 4045.8 316.288 4046 316.692 C 4046.3 317.306 4046.6 317.901 4046.9 318.49 C 4047.2 319.079 4047.49 319.647 4047.78 320.205 C 4048.07 320.767 4048.36 321.311 4048.64 321.842 C 4049.01 322.546 4049.38 323.231 4049.74 323.884 C 4049.92 324.21 4050.09 324.53 4050.27 324.85 C 4050.45 325.163 4050.62 325.47 4050.79 325.77 C 4050.96 326.066 4051.12 326.36 4051.29 326.647 C 4051.45 326.935 4051.6 327.211 4051.76 327.486 C 4051.92 327.754 4052.07 328.024 4052.22 328.279 C 4052.37 328.535 4052.51 328.784 4052.66 329.028 C 4052.87 329.393 4053.08 329.738 4053.28 330.064 C 4053.34 330.173 4053.4 330.282 4053.47 330.384 C 4053.59 330.595 4053.72 330.8 4053.83 330.998 C 4055.14 333.142 4055.93 334.319 4055.93 334.319 L 5207.87 334.319 C 5207.87 334.319 5235.22 293.548 5234.54 253.397 C 5234.54 253.083 5234.53 252.777 5234.52 252.464 C 5234.51 252.136 5234.5 251.804 5234.49 251.477 C 5234.47 251.254 5234.47 251.03 5234.46 250.813 C 5234.43 250.269 5234.4 249.724 5234.36 249.181 C 5234.36 249.052 5234.35 248.925 5234.33 248.79 C 5234.3 248.406 5234.27 248.016 5234.25 247.633 C 5234.21 247.229 5234.17 246.833 5234.13 246.43 C 5234 245.194 5233.84 243.96 5233.66 242.738 C 5233.6 242.372 5233.54 242.002 5233.47 241.631 C 5233.41 241.233 5233.34 240.837 5233.26 240.44 C 5233.08 239.467 5232.88 238.501 5232.66 237.541 C 5232.6 237.273 5232.53 237.011 5232.47 236.748 C 5232.27 235.923 5232.05 235.104 5231.81 234.291 C 5231.73 233.978 5231.64 233.671 5231.54 233.357 C 5231.43 232.992 5231.32 232.635 5231.2 232.269 C 5231.07 231.854 5230.94 231.444 5230.79 231.035 C 5230.66 230.651 5230.53 230.266 5230.39 229.889 L 5230.38 229.876 C 5230.24 229.492 5230.1 229.108 5229.95 228.725 C 5229.8 228.341 5229.65 227.963 5229.49 227.579 C 5229.37 227.285 5229.24 226.985 5229.12 226.683 C 5228.76 225.845 5228.37 225.013 5227.97 224.182 C 5227.86 223.951 5227.75 223.714 5227.63 223.484 C 5227.59 223.394 5227.54 223.305 5227.49 223.216 C 5227.34 222.902 5227.18 222.588 5227.01 222.275 C 5226.85 221.987 5226.7 221.692 5226.54 221.405 C 5225.83 220.112 5225.07 218.833 5224.24 217.571 L 5224.19 217.482 C 5223.91 217.073 5223.64 216.67 5223.36 216.267 C 5214.93 204.282 5201.33 197.813 5187.22 196.706 C 5185.9 196.597 5184.58 196.54 5183.25 196.527 L 5182.2 196.527 L 5157.94 196.604 L 5126.75 196.7 L 5035.03 196.994 L 5027.8 197.013 L 4916.64 197.365 L 4528.07 198.6 L 4147.32 199.803 L 4109.37 199.925 L 4081.8 200.015 L 4080.3 200.015 C 4079.44 200.033 4078.58 200.066 4077.72 200.117 C 4077.3 200.143 4076.87 200.174 4076.45 200.207 C 4076.02 200.238 4075.59 200.277 4075.17 200.322 L 4075.17 200.328 C 4074.81 200.366 4074.45 200.404 4074.1 200.443 C 4071.99 200.693 4069.88 201.058 4067.82 201.537 C 4067.47 201.62 4067.14 201.703 4066.79 201.787 C 4066.38 201.889 4065.97 201.998 4065.57 202.106 C 4065.39 202.158 4065.21 202.209 4065.03 202.26 C 4064.03 202.542 4063.03 202.855 4062.04 203.195 L 4061.91 203.239 C 4061.38 203.424 4060.87 203.617 4060.35 203.815 L 4060.31 203.828 C 4059.8 204.02 4059.3 204.224 4058.8 204.429 L 4058.6 204.513 C 4058.15 204.705 4057.7 204.902 4057.26 205.101 L 4057.25 205.113 C 4056.76 205.331 4056.27 205.561 4055.8 205.798 L 4055.64 205.882 C 4055.25 206.074 4054.85 206.272 4054.47 206.477 L 4054.22 206.611 C 4053.76 206.854 4053.31 207.104 4052.87 207.36 L 4052.8 207.404 C 4052.34 207.667 4051.9 207.935 4051.46 208.211 L 4051.31 208.307 C 4050.62 208.736 4049.96 209.177 4049.29 209.637 C 4049.07 209.798 4048.84 209.958 4048.62 210.124 C 4048.39 210.29 4048.16 210.457 4047.93 210.629 C 4047.72 210.789 4047.51 210.955 4047.3 211.122 C 4046.91 211.416 4046.55 211.717 4046.17 212.031 C 4046.02 212.159 4045.86 212.287 4045.71 212.421 L 4045.38 212.709 C 4044.5 213.477 4043.64 214.283 4042.83 215.121 C 4042.62 215.332 4042.41 215.556 4042.2 215.774 C 4040.48 217.617 4038.9 219.626 4037.5 221.788 C 4037.38 221.961 4037.27 222.14 4037.16 222.32 C 4036.99 222.582 4036.83 222.844 4036.68 223.113 C 4036.52 223.382 4036.36 223.65 4036.21 223.926 C 4035.82 224.61 4035.45 225.308 4035.1 226.018 C 4034.98 226.255 4034.86 226.492 4034.75 226.734 C 4034.63 226.997 4034.51 227.259 4034.39 227.528 C 4034.17 228.033 4033.94 228.552 4033.74 229.07 C 4033.61 229.37 4033.5 229.671 4033.39 229.978 C 4033.23 230.395 4033.08 230.811 4032.94 231.232 C 4032.86 231.444 4032.8 231.648 4032.73 231.86 C 4032.56 232.384 4032.39 232.909 4032.24 233.427 C 4032.04 234.08 4031.86 234.739 4031.68 235.392 C 4031.6 235.698 4031.52 236 4031.45 236.307 C 4031.31 236.844 4031.18 237.388 4031.06 237.932 C 4031 238.169 4030.95 238.406 4030.9 238.649 C 4030.81 239.084 4030.71 239.525 4030.63 239.973 C 4030.56 240.28 4030.51 240.587 4030.46 240.894 C 4030.4 241.202 4030.35 241.515 4030.3 241.822 C 4030.2 242.436 4030.1 243.057 4030.01 243.672 C 4029.97 243.979 4029.92 244.292 4029.89 244.605 C 4029.73 245.841 4029.6 247.082 4029.51 248.329 C 4029.48 248.637 4029.45 248.951 4029.44 249.264 C 4029.41 249.577 4029.4 249.884 4029.38 250.198 C 4028.87 259.565 4029.95 269.022 4031.96 278.044 Z " fill="rgb(199,125,40)"/><path d=" M 4075.17 200.322 L 4075.17 200.328 C 4075.59 200.283 4076.02 200.244 4076.45 200.207 C 4076.02 200.238 4075.59 200.277 4075.17 200.322 Z " fill="rgb(249,192,125)"/><path d=" M 5139.36 1315.417 C 5139.19 1315.125 5139.03 1314.833 5138.87 1314.541 L 5138.76 1314.349 L 5138.68 1314.191 L 5138.6 1314.041 C 5138.43 1313.724 5138.25 1313.407 5138.09 1313.081 C 5137.67 1312.306 5137.26 1311.521 5136.87 1310.72 L 5136.82 1310.637 C 5136.44 1309.87 5136.06 1309.102 5135.7 1308.326 C 5135.38 1307.676 5135.08 1307.017 5134.78 1306.349 C 5134.66 1306.091 5134.55 1305.832 5134.44 1305.582 C 5134.12 1304.873 5133.81 1304.155 5133.51 1303.438 C 5133.18 1302.662 5132.86 1301.878 5132.55 1301.094 L 5132.46 1300.885 C 5132.28 1300.427 5132.1 1299.976 5131.93 1299.517 C 5131.78 1299.159 5131.65 1298.8 5131.52 1298.441 C 5131.2 1297.599 5130.89 1296.756 5130.59 1295.905 C 5130.48 1295.588 5130.37 1295.279 5130.26 1294.963 L 5130.2 1294.787 C 5130.06 1294.404 5129.94 1294.02 5129.81 1293.636 C 5129.76 1293.478 5129.7 1293.311 5129.65 1293.152 C 5129.38 1292.368 5129.12 1291.576 5128.88 1290.783 C 5128.77 1290.45 5128.68 1290.124 5128.57 1289.791 L 5128.56 1289.749 C 5128.45 1289.39 5128.34 1289.023 5128.23 1288.664 C 5128.21 1288.564 5128.18 1288.472 5128.15 1288.372 C 5128.06 1288.089 5127.98 1287.797 5127.9 1287.513 C 5127.72 1286.937 5127.56 1286.354 5127.4 1285.77 C 5127.37 1285.653 5127.34 1285.544 5127.31 1285.428 C 5127.09 1284.635 5126.88 1283.843 5126.67 1283.05 C 5126.66 1282.992 5126.65 1282.95 5126.63 1282.867 C 5126.44 1282.183 5126.27 1281.498 5126.1 1280.815 C 5126.07 1280.706 5126.06 1280.623 5126.03 1280.514 C 5126 1280.372 5125.96 1280.239 5125.93 1280.105 C 5125.8 1279.58 5125.68 1279.054 5125.57 1278.529 C 5125.39 1277.786 5125.23 1277.044 5125.07 1276.301 C 5125 1276.035 5124.94 1275.759 5124.89 1275.492 C 5124.79 1275.025 5124.69 1274.55 5124.6 1274.082 L 5124.6 1274.074 C 5124.44 1273.332 5124.3 1272.589 5124.16 1271.839 C 5124.01 1271.096 5123.88 1270.345 5123.75 1269.603 C 5123.6 1268.81 5123.47 1268.018 5123.33 1267.225 C 5123.11 1265.907 5122.91 1264.589 5122.72 1263.28 C 5122.64 1262.679 5122.55 1262.078 5122.47 1261.478 C 5122.42 1261.036 5122.36 1260.585 5122.3 1260.135 C 5122.25 1259.718 5122.19 1259.309 5122.14 1258.892 C 5122.05 1258.099 5121.95 1257.323 5121.87 1256.539 C 5121.83 1256.247 5121.8 1255.955 5121.78 1255.655 C 5121.75 1255.363 5121.72 1255.071 5121.69 1254.779 L 5121.67 1254.612 C 5121.64 1254.379 5121.61 1254.154 5121.6 1253.928 C 5121.51 1253.052 5121.43 1252.185 5121.36 1251.317 C 5121.28 1250.441 5121.22 1249.557 5121.16 1248.689 C 5121.09 1247.839 5121.04 1246.996 5120.99 1246.153 C 5120.94 1245.361 5120.9 1244.577 5120.86 1243.793 C 5120.84 1243.434 5120.83 1243.075 5120.81 1242.716 C 5120.79 1242.283 5120.78 1241.857 5120.76 1241.424 C 5120.73 1240.681 5120.71 1239.93 5120.69 1239.196 C 5120.67 1238.729 5120.67 1238.262 5120.66 1237.803 C 5120.64 1237.086 5120.64 1236.377 5120.63 1235.676 C 5120.61 1234.983 5120.61 1234.291 5120.61 1233.607 C 5120.61 1224.239 5121.25 1215.53 5122.33 1208.006 L 5110.88 1201.207 L 5085.54 1186.158 L 5120.65 1180.335 C 5120.65 1180.335 5127.35 1124.994 5127.35 1100.235 C 5127.35 1075.484 5127.35 1052.185 5130.69 1036.16 C 5134.03 1020.144 5108.95 1007.038 5108.95 1007.038 L 5149.08 995.385 L 5085.54 979.368 C 5085.54 979.368 5129.59 968.999 5143.36 962.258 C 5143.82 960.899 5144.28 959.572 5144.75 958.263 C 5143.67 954.701 5143.19 941.487 5145.74 899.276 C 5148.75 849.51 5149.95 803.936 5150.43 767.88 L 5150.44 767.88 L 5150.44 767.763 L 5150.44 767.646 L 5150.43 767.646 C 5149.95 731.59 5148.75 686.016 5145.74 636.253 C 5143.19 594.043 5143.67 580.83 5144.75 577.265 C 5144.28 575.954 5143.82 574.629 5143.36 573.267 C 5129.59 566.528 5085.54 556.157 5085.54 556.157 L 5149.08 540.142 L 5108.95 528.489 C 5108.95 528.489 5134.03 515.385 5130.69 499.363 C 5127.35 483.342 5127.35 460.044 5127.35 435.288 C 5127.35 410.532 5120.65 355.192 5120.65 355.192 L 5085.54 349.369 L 5110.88 334.319 L 5122.33 327.525 C 5121.25 320 5120.61 311.285 5120.61 301.917 C 5120.61 301.232 5120.61 300.542 5120.63 299.85 C 5120.64 299.146 5120.64 298.436 5120.66 297.726 C 5120.67 297.266 5120.67 296.799 5120.69 296.332 C 5120.71 295.596 5120.73 294.847 5120.76 294.098 C 5120.78 293.67 5120.79 293.241 5120.81 292.805 C 5120.83 292.447 5120.84 292.09 5120.86 291.731 C 5120.9 290.95 5120.94 290.163 5120.99 289.376 C 5121.04 288.532 5121.09 287.687 5121.16 286.836 C 5121.22 285.966 5121.28 285.089 5121.36 284.212 C 5121.43 283.342 5121.51 282.472 5121.6 281.602 C 5121.61 281.372 5121.64 281.147 5121.67 280.911 L 5121.69 280.751 C 5121.72 280.457 5121.75 280.162 5121.78 279.868 C 5121.8 279.567 5121.83 279.28 5121.87 278.985 C 5121.95 278.204 5122.05 277.424 5122.14 276.637 C 5122.19 276.221 5122.25 275.805 5122.3 275.389 C 5122.36 274.941 5122.42 274.493 5122.47 274.045 C 5122.55 273.45 5122.64 272.849 5122.72 272.247 C 5122.91 270.935 5123.11 269.618 5123.33 268.299 C 5123.47 267.506 5123.6 266.713 5123.75 265.919 C 5123.88 265.177 5124.01 264.428 5124.16 263.686 C 5124.3 262.938 5124.44 262.195 5124.6 261.453 L 5124.6 261.447 C 5124.69 260.973 5124.79 260.499 5124.89 260.032 C 5124.94 259.764 5125 259.495 5125.07 259.226 C 5125.23 258.484 5125.39 257.741 5125.57 257 C 5125.68 256.475 5125.8 255.944 5125.93 255.419 C 5125.96 255.285 5126 255.15 5126.03 255.009 C 5126.06 254.908 5126.07 254.818 5126.1 254.715 C 5126.27 254.03 5126.44 253.339 5126.63 252.661 C 5126.65 252.572 5126.66 252.534 5126.67 252.476 C 5126.88 251.683 5127.09 250.889 5127.31 250.096 C 5127.34 249.98 5127.37 249.872 5127.4 249.756 C 5127.56 249.174 5127.72 248.592 5127.9 248.016 C 5127.98 247.728 5128.06 247.44 5128.15 247.152 C 5128.18 247.056 5128.21 246.96 5128.23 246.858 C 5128.34 246.5 5128.45 246.135 5128.56 245.776 L 5128.57 245.732 C 5128.68 245.405 5128.77 245.073 5128.88 244.746 C 5129.12 243.953 5129.38 243.16 5129.65 242.372 C 5129.7 242.212 5129.76 242.046 5129.81 241.887 C 5129.94 241.502 5130.06 241.125 5130.2 240.741 L 5130.26 240.561 C 5130.37 240.248 5130.48 239.935 5130.59 239.622 C 5130.89 238.77 5131.2 237.926 5131.52 237.087 C 5131.65 236.723 5131.78 236.364 5131.93 236.006 C 5132.1 235.552 5132.28 235.097 5132.46 234.643 L 5132.55 234.432 C 5132.86 233.645 5133.18 232.864 5133.51 232.09 C 5133.81 231.367 5134.12 230.657 5134.44 229.947 C 5134.55 229.691 5134.66 229.435 5134.78 229.178 C 5135.08 228.514 5135.38 227.855 5135.7 227.201 C 5136.06 226.421 5136.44 225.653 5136.82 224.885 L 5136.87 224.802 C 5137.26 224.009 5137.67 223.222 5138.09 222.441 C 5138.25 222.121 5138.43 221.802 5138.6 221.481 L 5138.68 221.334 L 5138.76 221.174 L 5138.87 220.989 C 5139.03 220.695 5139.19 220.4 5139.36 220.112 C 5148.04 204.66 5165.08 196.7 5182.2 196.527 L 5157.94 196.604 L 5126.75 196.7 L 5035.03 196.994 L 5027.8 197.013 L 4916.64 197.365 L 4528.07 198.6 L 4147.32 199.803 L 4109.37 199.925 L 4081.8 200.015 C 4099.69 200.148 4117.54 208.166 4126.67 224.424 L 4126.71 224.38 C 4127.02 224.988 4127.32 225.596 4127.62 226.209 C 4127.67 226.312 4127.72 226.414 4127.77 226.517 C 4128.02 227.041 4128.27 227.566 4128.51 228.091 C 4129.01 229.141 4129.48 230.203 4129.94 231.271 C 4130.11 231.661 4130.28 232.051 4130.44 232.448 C 4130.56 232.724 4130.67 232.999 4130.78 233.28 C 4130.95 233.683 4131.12 234.093 4131.28 234.502 C 4131.5 235.046 4131.71 235.59 4131.92 236.134 C 4132.08 236.544 4132.23 236.953 4132.39 237.363 C 4132.46 237.554 4132.53 237.746 4132.6 237.938 C 4132.78 238.431 4132.97 238.924 4133.14 239.423 C 4133.33 239.98 4133.53 240.529 4133.72 241.086 C 4133.92 241.643 4134.1 242.194 4134.28 242.75 C 4134.47 243.306 4134.65 243.863 4134.82 244.427 C 4135 244.99 4135.17 245.552 4135.34 246.109 C 4135.58 246.87 4135.8 247.632 4136.02 248.4 C 4136.16 248.88 4136.3 249.366 4136.43 249.858 C 4136.6 250.486 4136.77 251.113 4136.93 251.74 C 4137.1 252.367 4137.27 252.994 4137.42 253.628 C 4137.51 253.96 4137.59 254.287 4137.67 254.619 C 4137.81 255.189 4137.95 255.759 4138.08 256.334 C 4138.22 256.903 4138.35 257.48 4138.48 258.049 C 4138.61 258.625 4138.74 259.195 4138.85 259.77 C 4138.98 260.346 4139.09 260.922 4139.21 261.491 C 4139.32 261.978 4139.41 262.464 4139.51 262.95 C 4139.55 263.161 4139.59 263.379 4139.62 263.59 C 4139.72 264.038 4139.8 264.492 4139.88 264.941 C 4139.99 265.516 4140.09 266.092 4140.19 266.667 C 4140.26 267.039 4140.32 267.41 4140.38 267.788 C 4140.45 268.196 4140.52 268.607 4140.58 269.016 C 4140.65 269.381 4140.7 269.751 4140.76 270.117 C 4140.87 270.865 4140.99 271.62 4141.09 272.369 C 4141.24 273.341 4141.37 274.314 4141.49 275.281 C 4141.57 275.849 4141.64 276.419 4141.7 276.988 C 4141.78 277.558 4141.84 278.134 4141.9 278.703 C 4142.09 280.412 4142.26 282.114 4142.41 283.803 C 4142.47 284.513 4142.53 285.217 4142.58 285.915 C 4142.63 286.555 4142.67 287.195 4142.72 287.828 C 4142.72 287.904 4142.72 287.981 4142.73 288.058 C 4142.78 288.711 4142.81 289.363 4142.85 290.01 C 4142.89 290.739 4142.93 291.456 4142.96 292.179 C 4142.98 292.613 4143 293.042 4143.02 293.471 C 4143.03 293.682 4143.03 293.9 4143.04 294.111 C 4143.06 294.566 4143.08 295.013 4143.08 295.467 C 4143.11 295.992 4143.12 296.504 4143.13 297.022 C 4143.13 297.163 4143.14 297.303 4143.14 297.444 C 4143.16 298.2 4143.17 298.948 4143.17 299.691 C 4143.2 301.693 4143.19 303.67 4143.15 305.61 C 4143.14 306.115 4143.14 306.621 4143.12 307.12 C 4143.1 308.258 4143.06 309.384 4143.01 310.498 C 4142.99 311.054 4142.96 311.605 4142.93 312.155 C 4142.9 312.705 4142.87 313.256 4142.84 313.793 C 4142.81 314.337 4142.78 314.881 4142.74 315.412 C 4142.7 315.949 4142.67 316.48 4142.62 317.011 C 4142.54 318.068 4142.45 319.11 4142.35 320.14 C 4142.17 322.067 4141.96 323.934 4141.72 325.739 C 4141.64 326.34 4141.56 326.935 4141.48 327.525 L 4152.92 334.319 L 4178.27 349.369 L 4143.15 355.192 C 4143.15 355.192 4136.46 410.532 4136.46 435.288 C 4136.46 460.044 4136.46 483.342 4133.11 499.363 C 4129.77 515.385 4154.86 528.489 4154.86 528.489 L 4114.72 540.142 L 4178.27 556.157 C 4178.27 556.157 4118.06 579.94 4118.06 585.769 C 4118.06 591.592 4123.08 594.023 4118.06 677.025 C 4115.62 717.507 4114.36 745.514 4113.72 767.646 L 4113.71 767.646 L 4113.72 767.763 L 4113.71 767.88 L 4113.72 767.88 C 4114.36 790.012 4115.62 818.019 4118.06 858.501 C 4123.08 941.504 4118.06 943.931 4118.06 949.754 C 4118.06 955.585 4178.27 979.368 4178.27 979.368 L 4114.72 995.385 L 4154.86 1007.038 C 4154.86 1007.038 4129.77 1020.144 4133.11 1036.16 C 4136.46 1052.185 4136.46 1075.484 4136.46 1100.235 C 4136.46 1124.994 4143.15 1180.335 4143.15 1180.335 L 4178.27 1186.158 L 4152.92 1201.207 L 4141.48 1208.006 C 4141.56 1208.589 4141.64 1209.19 4141.72 1209.791 C 4141.96 1211.593 4142.17 1213.461 4142.35 1215.388 C 4142.45 1216.414 4142.54 1217.457 4142.62 1218.516 C 4142.67 1219.042 4142.7 1219.576 4142.74 1220.118 C 4142.78 1220.644 4142.81 1221.186 4142.84 1221.736 C 4142.87 1222.27 4142.9 1222.821 4142.93 1223.371 C 4142.96 1223.922 4142.99 1224.473 4143.01 1225.031 C 4143.06 1226.141 4143.1 1227.267 4143.12 1228.41 C 4143.14 1228.902 4143.14 1229.411 4143.15 1229.92 C 4143.19 1231.855 4143.2 1233.832 4143.17 1235.834 C 4143.17 1236.577 4143.16 1237.328 4143.14 1238.078 C 4143.14 1238.22 4143.13 1238.362 4143.13 1238.504 C 4143.12 1239.021 4143.11 1239.53 4143.08 1240.055 C 4143.08 1240.514 4143.06 1240.965 4143.04 1241.415 C 4143.03 1241.624 4143.03 1241.841 4143.02 1242.058 C 4143 1242.483 4142.98 1242.908 4142.96 1243.35 C 4142.93 1244.068 4142.89 1244.785 4142.85 1245.519 C 4142.81 1246.162 4142.78 1246.813 4142.73 1247.472 C 4142.72 1247.547 4142.72 1247.622 4142.72 1247.697 C 4142.67 1248.331 4142.63 1248.973 4142.58 1249.615 C 4142.53 1250.308 4142.47 1251.017 4142.41 1251.726 C 4142.26 1253.411 4142.09 1255.113 4141.9 1256.823 C 4141.84 1257.39 4141.78 1257.966 4141.7 1258.541 C 4141.64 1259.109 4141.57 1259.676 4141.49 1260.243 C 4141.37 1261.211 4141.24 1262.187 4141.09 1263.154 C 4140.99 1263.905 4140.87 1264.664 4140.76 1265.407 C 4140.7 1265.774 4140.65 1266.149 4140.58 1266.508 C 4140.52 1266.917 4140.45 1267.325 4140.38 1267.742 C 4140.32 1268.118 4140.26 1268.485 4140.19 1268.86 C 4140.09 1269.436 4139.99 1270.012 4139.88 1270.587 C 4139.8 1271.038 4139.72 1271.488 4139.62 1271.939 C 4139.59 1272.147 4139.55 1272.364 4139.51 1272.573 C 4139.41 1273.065 4139.32 1273.549 4139.21 1274.032 C 4139.09 1274.608 4138.98 1275.184 4138.85 1275.759 C 4138.74 1276.335 4138.61 1276.902 4138.48 1277.478 C 4138.35 1278.045 4138.22 1278.62 4138.08 1279.196 C 4137.95 1279.772 4137.81 1280.339 4137.67 1280.906 C 4137.59 1281.24 4137.51 1281.565 4137.42 1281.899 C 4137.27 1282.533 4137.1 1283.158 4136.93 1283.784 C 4136.77 1284.41 4136.6 1285.044 4136.43 1285.669 C 4136.3 1286.162 4136.16 1286.646 4136.02 1287.129 C 4135.8 1287.897 4135.58 1288.656 4135.34 1289.415 C 4135.17 1289.974 4135 1290.533 4134.82 1291.1 C 4134.65 1291.659 4134.47 1292.218 4134.28 1292.777 C 4134.1 1293.336 4133.92 1293.886 4133.72 1294.437 C 4133.53 1294.996 4133.33 1295.546 4133.14 1296.105 C 4132.97 1296.606 4132.78 1297.098 4132.6 1297.59 C 4132.53 1297.782 4132.46 1297.974 4132.39 1298.166 C 4132.23 1298.575 4132.08 1298.983 4131.92 1299.392 C 4131.71 1299.934 4131.5 1300.476 4131.28 1301.027 C 4131.12 1301.436 4130.95 1301.845 4130.78 1302.245 C 4130.67 1302.529 4130.56 1302.804 4130.44 1303.079 C 4130.28 1303.471 4130.11 1303.863 4129.94 1304.255 C 4129.48 1305.323 4129.01 1306.383 4128.51 1307.434 C 4128.27 1307.959 4128.02 1308.485 4127.77 1309.011 C 4127.72 1309.111 4127.67 1309.211 4127.62 1309.319 C 4127.32 1309.928 4127.02 1310.537 4126.71 1311.146 L 4126.67 1311.104 C 4117.54 1327.363 4099.69 1335.379 4081.8 1335.513 L 4109.37 1335.605 L 4147.32 1335.721 L 4528.07 1336.923 L 4916.64 1338.157 L 5027.8 1338.516 L 5035.03 1338.533 L 5126.75 1338.825 L 5157.94 1338.925 L 5182.2 1339 C 5165.08 1338.825 5148.04 1330.867 5139.36 1315.417 Z " fill="rgb(234,173,113)"/><path d=" M 5121.09 767.88 L 5121.09 767.88 L 5121.09 767.763 L 5121.09 767.646 C 5120.95 705.79 5121.31 573.147 5121.31 573.147 L 5032.67 557.856 L 5102.07 541.837 L 5087.86 529.46 L 5110.44 489.413 L 5107.09 368.542 L 5061.1 344.515 C 5061.1 344.515 5098.73 329.224 5097.89 316.118 C 5097.06 303.011 5113.08 224.789 5113.08 224.789 L 5018.77 224.789 L 4944.28 246.516 L 4899.73 228.544 L 4540.03 228.544 L 4493.45 284.129 L 4483.96 232.3 L 4408.05 235.305 L 4387.14 246.945 L 4351.12 230.047 C 4282 229.076 4153.58 235.305 4153.58 235.305 C 4166.96 261.518 4158.58 314.904 4158.58 314.904 L 4215.44 349.855 C 4215.44 349.855 4159.69 366.359 4155.23 377.038 C 4150.78 387.717 4169.73 493.538 4169.73 493.538 L 4231.05 504.218 L 4170.84 539.168 L 4222.13 545.963 L 4145.2 598.389 L 4137.21 767.646 L 4137.2 767.646 L 4137.21 767.763 L 4137.2 767.88 L 4137.21 767.88 L 4145.2 937.141 L 4222.13 989.562 L 4170.84 996.361 L 4231.05 1031.305 L 4169.73 1041.991 C 4169.73 1041.991 4150.78 1147.81 4155.23 1158.487 C 4159.69 1169.165 4215.44 1185.674 4215.44 1185.674 L 4158.58 1220.619 C 4158.58 1220.619 4166.96 1274.007 4153.58 1300.218 C 4153.58 1300.218 4282 1306.449 4351.12 1305.482 L 4387.14 1288.581 L 4408.05 1300.218 L 4483.96 1303.229 L 4493.45 1251.401 L 4540.03 1306.983 L 4899.73 1306.983 L 4944.28 1289.006 L 5018.77 1310.737 L 5113.08 1310.737 C 5113.08 1310.737 5097.06 1232.514 5097.89 1219.409 C 5098.73 1206.304 5061.1 1191.013 5061.1 1191.013 L 5107.09 1166.98 L 5110.44 1046.112 L 5087.86 1006.071 L 5102.07 993.691 L 5032.67 977.666 L 5121.31 962.375 C 5121.31 962.375 5120.95 829.736 5121.09 767.88 Z " fill="rgb(249,202,140)"/></g></svg>