<?xml version="1.0" encoding="UTF-8" standalone="no"?><!-- Generator: Gravit.io --><svg xmlns="http://www.w3.org/2000/svg" xmlns:xlink="http://www.w3.org/1999/xlink" style="isolation:isolate" viewBox="-1296 1115.352 2292 332.648" width="2292pt" height="332.648pt"><defs><clipPath id="_clipPath_XkRdQSaXeFOEg3mrUwmY9RmPUHyAX0ZA"><rect x="-1296" y="1115.352" width="2292" height="332.648"/></clipPath></defs><g clip-path="url(#_clipPath_XkRdQSaXeFOEg3mrUwmY9RmPUHyAX0ZA)"><g><path d=" M 810.888 1134.944 L 632.643 1420.365 C 558.149 1417.996 482.402 1416.117 406.443 1414.648 L 399.967 1403.863 L 375.442 1414.074 C 370.308 1413.982 365.175 1413.891 360.042 1413.805 L 350.077 1410.038 L 322.476 1413.194 C 298.006 1412.814 273.547 1412.476 249.145 1412.175 L 238.039 1406.757 L 215.75 1411.788 C 172.928 1411.315 130.318 1410.958 88.122 1410.699 L 72.622 1403.863 L 35.09 1410.425 C -39.931 1410.102 -113.362 1410.08 -184.132 1410.28 L -197.821 1406.564 L -203.681 1410.339 C -208.58 1410.354 -213.478 1410.371 -218.343 1410.391 L -232.837 1404.829 L -252.252 1410.536 C -309.255 1410.81 -364.178 1411.214 -416.406 1411.707 L -433.271 1407.336 L -482.557 1412.392 C -543.866 1413.083 -600.668 1413.876 -651.822 1414.69 L -667.837 1403.863 L -699.453 1415.476 C -703.837 1415.553 -708.165 1415.627 -712.448 1415.703 L -727.345 1412.545 L -733.675 1416.083 C -741.884 1416.231 -749.869 1416.381 -757.63 1416.527 L -785.992 1409.843 L -795.252 1417.261 C -881.5 1418.997 -931.592 1420.365 -931.592 1420.365 L -1080.95 1134.944 C -1024.584 1132.069 -967.491 1129.572 -909.996 1127.417 L -886.209 1132.222 L -882.485 1126.411 C -866.861 1125.854 -851.215 1125.322 -835.558 1124.814 L -796.93 1135.782 L -792.221 1123.473 C -737.22 1121.843 -682.073 1120.5 -627.061 1119.408 L -609.19 1126.707 L -593.152 1118.769 C -494.691 1116.994 -396.868 1116.01 -301.36 1115.633 L -278.344 1123.771 L -254.713 1119.398 L -238.686 1126.707 L -229.594 1115.458 C -177.847 1115.411 -126.939 1115.532 -77.139 1115.796 L -61.727 1121.611 L -37.023 1116.038 C 69.647 1116.76 170.781 1118.096 263.583 1119.738 L 269.119 1133.467 L 296.194 1120.332 C 311.08 1120.613 325.741 1120.899 340.146 1121.192 L 347.885 1126.707 L 362.961 1121.666 C 632.822 1127.37 810.888 1134.944 810.888 1134.944 Z " fill="rgb(237,169,102)"/><path d=" M -858.205 1433.811 L -858.216 1433.811 C -857.981 1434.018 -857.813 1434.227 -857.724 1434.439 C -857.668 1434.56 -857.634 1434.683 -857.623 1434.807 L -857.623 1434.814 C -857.612 1435.031 -857.668 1435.245 -857.802 1435.462 C -860.565 1440.191 -896.498 1444.737 -944.677 1446.605 C -951.119 1446.854 -957.784 1447.059 -964.617 1447.207 C -988.181 1447.717 -1010.347 1447.513 -1028.867 1446.741 C -1058.75 1445.506 -1079.171 1442.801 -1080.748 1439.271 C -1080.905 1438.904 -1080.849 1438.537 -1080.614 1438.169 C -1070.806 1409.466 -1072.484 1380.014 -1080.938 1351.108 L -921.191 1347.647 C -888.714 1404.925 -858.205 1433.811 -858.205 1433.811 Z " fill="rgb(224,154,90)"/><path d=" M -842.425 1427.024 L -842.425 1427.024 C -842.167 1427.246 -841.977 1427.472 -841.865 1427.702 C -841.81 1427.835 -841.787 1427.968 -841.776 1428.101 L -841.776 1428.111 C -841.765 1428.343 -841.854 1428.579 -842.022 1428.814 C -845.634 1433.949 -889.284 1438.978 -947.573 1441.135 C -955.368 1441.423 -963.432 1441.66 -971.685 1441.84 C -1000.193 1442.459 -1026.944 1442.294 -1049.277 1441.51 C -1085.3 1440.25 -1109.815 1437.37 -1111.515 1433.547 C -1111.693 1433.147 -1111.604 1432.748 -1111.291 1432.351 C -1097.859 1401.188 -1098.251 1369.243 -1106.873 1337.909 L -913.732 1333.723 C -877.676 1395.769 -842.425 1427.024 -842.425 1427.024 Z " fill="rgb(237,169,102)"/><path d=" M -1029.896 1129.404 C -1011.622 1128.514 -992.856 1127.491 -973.833 1126.707 C -964.908 1127.814 -960.312 1128.49 -960.312 1128.49 C -959.35 1184.017 -947.752 1232.053 -932.308 1272.099 C -930.037 1278.02 -927.655 1283.767 -925.206 1289.346 C -886.242 1377.994 -829.049 1422.584 -829.049 1422.584 L -829.049 1422.584 C -828.781 1422.786 -828.59 1422.993 -828.49 1423.2 C -828.434 1423.321 -828.423 1423.442 -828.423 1423.565 L -828.423 1423.572 C -828.434 1423.784 -828.557 1423.999 -828.758 1424.213 C -833.232 1428.912 -882.16 1433.687 -947.092 1435.906 C -955.771 1436.204 -964.751 1436.456 -973.944 1436.656 C -1005.65 1437.343 -1035.343 1437.311 -1060.081 1436.69 C -1099.973 1435.699 -1126.937 1433.182 -1128.491 1429.703 C -1128.659 1429.341 -1128.525 1428.976 -1128.133 1428.611 C -1100.185 1383.694 -1110.262 1337.147 -1134.519 1293.882 C -1137.774 1288.079 -1141.308 1282.349 -1145.065 1276.711 C -1197.897 1197.475 -1294.68 1136.275 -1294.68 1136.275 C -1288.35 1135.032 -1282.859 1133.529 -1276.563 1132.444 C -1271.776 1131.623 -1267.012 1130.846 -1262.259 1130.112 C -1186.389 1133.676 -1106.929 1133.036 -1029.896 1129.404 Z " fill="rgb(249,192,125)"/><path d=" M -862.097 1424.862 C -898.913 1429.834 -1000.181 1440.514 -1101.897 1424.605 C -1101.897 1424.605 -1084.26 1394.413 -1086.642 1386.579 C -1089.013 1378.741 -1047.756 1373.683 -1057.676 1372.652 C -1067.585 1371.622 -1093.028 1367.243 -1093.028 1367.243 C -1093.028 1367.243 -1090.713 1354.87 -1100.812 1342.27 C -1110.899 1329.673 -1094.336 1313.291 -1094.336 1313.291 L -1105.028 1306.62 C -1105.028 1306.62 -1102.545 1263.431 -1131.6 1247.054 C -1160.644 1230.675 -1196.052 1196.44 -1211.15 1187.649 C -1226.259 1178.855 -1195.549 1172.273 -1200.346 1171.639 C -1205.155 1171.003 -1238.114 1164.815 -1240.652 1164.132 C -1243.191 1163.447 -1269.238 1137.638 -1269.238 1137.638 C -1269.238 1137.638 -1182.799 1122.699 -1127.362 1123.224 L -1110.899 1134.944 L -1087.76 1123.352 C -1087.76 1123.352 -988.908 1128.62 -974.336 1131.246 C -974.336 1131.246 -981.762 1157.042 -976.651 1172.707 L -1008.189 1173.883 L -964.64 1183.783 C -964.64 1183.783 -967.044 1222.042 -961.486 1235.233 C -955.928 1248.422 -963.734 1263.507 -963.734 1263.507 L -946.421 1266.431 C -946.421 1266.431 -936.435 1277.996 -932.006 1298.766 C -927.566 1319.536 -917.064 1341.491 -905.691 1357.76 C -894.317 1374.03 -917.624 1382.176 -917.624 1382.176 C -917.624 1382.176 -892.393 1383.354 -888.96 1383.527 C -885.526 1383.699 -884.677 1388.117 -872.129 1398.69 C -863.584 1405.894 -855.286 1414.431 -850.857 1419.14 C -848.755 1421.381 -853.25 1423.666 -862.097 1424.862 Z " fill="rgb(249,202,140)"/><path d=" M -1133.188 1119.452 C -1158.609 1120.004 -1182.542 1120.911 -1203.824 1122.068 C -1210.602 1122.435 -1217.111 1122.827 -1223.306 1123.243 C -1268.656 1126.278 -1297.711 1130.481 -1295.922 1134.502 C -1294.188 1138.395 -1264.015 1141.213 -1219.381 1142.322 C -1191.713 1143.015 -1158.475 1143.049 -1123.011 1142.283 C -1112.722 1142.058 -1102.679 1141.777 -1092.972 1141.445 C -1020.323 1138.962 -965.579 1133.62 -960.58 1128.364 C -960.345 1128.122 -960.211 1127.883 -960.2 1127.644 L -960.2 1127.637 C -960.2 1127.499 -960.222 1127.363 -960.278 1127.23 C -962.772 1121.629 -1024.193 1118.256 -1102.903 1118.986 L -1102.993 1118.986 C -1112.812 1119.075 -1122.911 1119.23 -1133.188 1119.452 Z " fill="rgb(244,177,110)"/><path d=" M -1104.57 1115.448 L -1092.972 1141.445 C -1020.323 1138.962 -965.579 1133.62 -960.58 1128.364 C -960.356 1128.117 -960.233 1127.881 -960.2 1127.644 L -960.2 1127.637 C -959.249 1121.481 -1018.903 1116.082 -1092.167 1115.498 C -1096.338 1115.466 -1100.476 1115.448 -1104.57 1115.448 Z " fill="rgb(199,125,40)"/><path d=" M -1214.225 1121.099 C -1218.128 1121.769 -1221.181 1122.487 -1223.306 1123.243 C -1268.656 1126.278 -1297.711 1130.481 -1295.922 1134.502 C -1294.188 1138.395 -1264.015 1141.213 -1219.381 1142.322 L -1227.523 1124.035 L -1202.404 1122.198 L -1203.824 1122.068 L -1214.225 1121.099 Z " fill="rgb(199,125,40)"/><path d=" M -1214.661 1120.12 C -1218.632 1120.633 -1221.774 1121.178 -1223.966 1121.742 C -1226.169 1122.302 -1227.422 1122.881 -1227.657 1123.478 C -1227.724 1123.67 -1227.679 1123.855 -1227.523 1124.035 C -1224.123 1128.053 -1164.872 1128.753 -1099.816 1126.103 C -1099.537 1126.093 -1101.863 1121.106 -1103.373 1117.926 C -1104.089 1116.442 -1104.614 1115.352 -1104.614 1115.352 C -1153.017 1115.628 -1194.508 1117.507 -1214.661 1120.12 Z " fill="rgb(199,125,40)"/><path d=" M 558.205 1434.323 L 558.205 1434.323 C 557.981 1434.53 557.813 1434.74 557.713 1434.952 C 557.657 1435.073 557.635 1435.196 557.612 1435.319 L 557.623 1435.327 C 557.601 1435.544 557.668 1435.758 557.791 1435.975 C 560.564 1440.704 596.498 1445.249 644.666 1447.118 C 651.108 1447.367 657.784 1447.572 664.606 1447.72 C 688.181 1448.23 710.336 1448.025 728.867 1447.254 C 758.75 1446.019 779.16 1443.314 780.737 1439.784 C 780.905 1439.417 780.849 1439.049 780.603 1438.682 C 770.795 1409.979 772.473 1380.526 780.938 1351.621 L 621.191 1348.16 C 588.714 1405.438 558.205 1434.323 558.205 1434.323 Z " fill="rgb(224,154,90)"/><path d=" M 542.413 1427.537 L 542.425 1427.537 C 542.156 1427.758 541.966 1427.985 541.865 1428.214 C 541.81 1428.348 541.776 1428.481 541.765 1428.614 L 541.776 1428.624 C 541.765 1428.855 541.854 1429.092 542.022 1429.326 C 545.623 1434.461 589.273 1439.491 647.573 1441.648 C 655.357 1441.936 663.432 1442.173 671.685 1442.353 C 700.181 1442.972 726.933 1442.806 749.267 1442.022 C 785.289 1440.763 809.804 1437.883 811.515 1434.06 C 811.693 1433.66 811.604 1433.261 811.291 1432.864 C 797.848 1401.701 798.24 1369.756 806.862 1338.422 L 613.72 1334.236 C 577.664 1396.282 542.413 1427.537 542.413 1427.537 Z " fill="rgb(237,169,102)"/><path d=" M 729.896 1129.404 C 711.622 1128.514 692.845 1127.491 673.833 1126.707 C 664.908 1127.814 660.301 1128.49 660.301 1128.49 C 659.339 1184.017 647.752 1232.053 632.308 1272.099 C 630.026 1278.02 627.644 1283.767 625.195 1289.346 C 586.231 1377.994 529.038 1422.584 529.038 1422.584 L 529.049 1422.584 C 528.769 1422.786 528.579 1422.993 528.49 1423.2 C 528.434 1423.321 528.411 1423.442 528.411 1423.565 L 528.423 1423.572 C 528.434 1423.784 528.546 1423.999 528.758 1424.213 C 533.221 1428.912 582.16 1433.687 647.093 1435.906 C 655.771 1436.204 664.752 1436.456 673.933 1436.656 C 705.639 1437.343 735.343 1437.311 760.07 1436.69 C 799.973 1435.699 826.937 1433.182 828.491 1429.703 C 828.648 1429.341 828.514 1428.976 828.133 1428.611 C 800.185 1383.694 810.251 1337.147 834.519 1293.882 C 837.774 1288.079 841.308 1282.349 845.066 1276.711 C 897.886 1197.475 994.681 1136.275 994.681 1136.275 C 988.339 1135.032 982.859 1133.529 976.552 1132.444 C 971.776 1131.623 967.001 1130.846 962.248 1130.112 C 886.378 1133.676 806.918 1133.036 729.896 1129.404 Z " fill="rgb(249,192,125)"/><path d=" M 562.097 1424.862 C 598.913 1429.834 700.181 1440.514 801.885 1424.605 C 801.885 1424.605 784.26 1394.413 786.631 1386.579 C 789.013 1378.741 747.745 1373.683 757.665 1372.652 C 767.585 1371.622 793.017 1367.243 793.017 1367.243 C 793.017 1367.243 790.713 1354.87 800.801 1342.27 C 810.899 1329.673 794.336 1313.291 794.336 1313.291 L 805.017 1306.62 C 805.017 1306.62 802.534 1263.431 831.589 1247.054 C 860.644 1230.675 896.041 1196.44 911.15 1187.649 C 926.248 1178.855 895.537 1172.273 900.346 1171.639 C 905.155 1171.003 938.102 1164.815 940.641 1164.132 C 943.191 1163.447 969.238 1137.638 969.238 1137.638 C 969.238 1137.638 882.788 1122.699 827.351 1123.224 L 810.888 1134.944 L 787.749 1123.352 C 787.749 1123.352 688.908 1128.62 674.325 1131.246 C 674.325 1131.246 681.751 1157.042 676.64 1172.707 L 708.178 1173.883 L 664.628 1183.783 C 664.628 1183.783 667.044 1222.042 661.486 1235.233 C 655.928 1248.422 663.734 1263.507 663.734 1263.507 L 646.421 1266.431 C 646.421 1266.431 636.434 1277.996 631.995 1298.766 C 627.555 1319.536 617.053 1341.491 605.679 1357.76 C 594.306 1374.03 617.624 1382.176 617.624 1382.176 C 617.624 1382.176 592.382 1383.354 588.96 1383.527 C 585.526 1383.699 584.665 1388.117 572.128 1398.69 C 563.584 1405.894 555.275 1414.431 550.857 1419.14 C 548.755 1421.381 553.251 1423.666 562.097 1424.862 Z " fill="rgb(249,202,140)"/><path d=" M 833.188 1119.965 C 858.609 1120.517 882.542 1121.424 903.813 1122.58 C 910.591 1122.948 917.099 1123.34 923.295 1123.756 C 968.656 1126.791 997.711 1130.994 995.922 1135.015 C 994.177 1138.908 964.004 1141.726 919.37 1142.835 C 891.701 1143.528 858.475 1143.562 823 1142.796 C 812.723 1142.571 802.679 1142.29 792.961 1141.957 C 720.323 1139.475 665.568 1134.133 660.569 1128.877 C 660.345 1128.635 660.211 1128.396 660.2 1128.157 L 660.189 1128.149 C 660.189 1128.011 660.211 1127.876 660.267 1127.743 C 662.772 1122.142 724.193 1118.769 802.892 1119.499 L 802.981 1119.499 C 812.801 1119.587 822.9 1119.743 833.188 1119.965 Z " fill="rgb(244,177,110)"/><path d=" M 804.558 1115.961 L 792.961 1141.957 C 720.323 1139.475 665.568 1134.133 660.569 1128.877 C 660.356 1128.63 660.233 1128.393 660.2 1128.157 L 660.189 1128.149 C 659.249 1121.994 718.903 1116.595 792.167 1116.01 C 796.338 1115.978 800.476 1115.961 804.558 1115.961 Z " fill="rgb(199,125,40)"/><path d=" M 914.225 1121.099 C 918.117 1121.769 921.182 1122.487 923.295 1123.243 C 968.656 1126.278 997.711 1130.481 995.922 1134.502 C 994.177 1138.395 964.004 1141.213 919.37 1142.322 L 927.523 1124.035 L 902.404 1122.198 L 903.813 1122.068 L 914.225 1121.099 Z " fill="rgb(199,125,40)"/><path d=" M 914.661 1120.633 C 918.632 1121.146 921.763 1121.69 923.966 1122.255 C 926.158 1122.815 927.411 1123.394 927.646 1123.99 C 927.724 1124.183 927.679 1124.368 927.523 1124.548 C 924.123 1128.566 864.861 1129.266 799.805 1126.616 C 799.537 1126.606 801.852 1121.619 803.362 1118.439 C 804.077 1116.955 804.603 1115.865 804.603 1115.865 C 853.006 1116.141 894.508 1118.02 914.661 1120.633 Z " fill="rgb(199,125,40)"/><path d=" M -886.443 1153.051 C -886.443 1153.051 -906.373 1351.007 -797.164 1398.079 L -748.348 1395.663 L -722.1 1404.346 L -660.388 1390.166 L -605.253 1406.952 L -484.47 1404.925 L -396.51 1391.613 L -357.121 1404.925 L -253.404 1404.057 L -220.58 1395.954 L -202.53 1402.899 L -156.252 1395.954 L -127.364 1406.952 L 18.359 1404.637 L 106.318 1392.48 L 118.139 1406.952 L 191.661 1406.952 L 257.297 1398.079 L 283.557 1408.399 L 340.012 1406.952 L 366.271 1408.399 L 417.47 1394.507 L 463.423 1406.952 L 514.622 1408.399 C 514.622 1408.399 662.056 1193.373 610.656 1139.544 L 401.712 1128.191 L 349.205 1137.229 L 319.009 1125.075 L 267.799 1146.2 L 225.793 1123.209 L -6.581 1121.611 C -6.581 1121.611 -85.358 1137.808 -85.358 1136.941 C -85.358 1136.07 -115.554 1119.4 -115.554 1119.4 L -190.384 1121.611 L -221.9 1140.412 L -258.649 1124.496 L -280.972 1140.703 L -317.732 1121.611 L -551.426 1123.209 L -623.628 1140.123 L -668.273 1123.209 L -757.541 1128.191 L -769.362 1150.541 L -850.354 1132.224 L -879.644 1140.703 L -886.443 1153.051 Z " fill="rgb(249,202,140)"/></g></g></svg>